<?xml version="1.0" encoding="UTF-8" standalone="no"?>
<!-- Created with Inkscape (http://www.inkscape.org/) -->

<svg
   xmlns:dc="http://purl.org/dc/elements/1.1/"
   xmlns:cc="http://creativecommons.org/ns#"
   xmlns:rdf="http://www.w3.org/1999/02/22-rdf-syntax-ns#"
   xmlns:svg="http://www.w3.org/2000/svg"
   xmlns="http://www.w3.org/2000/svg"
   xmlns:sodipodi="http://sodipodi.sourceforge.net/DTD/sodipodi-0.dtd"
   xmlns:inkscape="http://www.inkscape.org/namespaces/inkscape"
   width="400mm"
   height="300mm"
   viewBox="0 0 400 300"
   version="1.1"
   id="svg8"
   inkscape:version="0.91 r"
   sodipodi:docname="parts.svg">
  <title
     id="title5630">Laser-Vorlage 300x400mm</title>
  <defs
     id="defs2" />
  <sodipodi:namedview
     id="base"
     pagecolor="#ffffff"
     bordercolor="#666666"
     borderopacity="1.0"
     inkscape:pageopacity="0.0"
     inkscape:pageshadow="2"
     inkscape:zoom="0.8221625"
     inkscape:cx="555.18143"
     inkscape:cy="464.46001"
     inkscape:document-units="mm"
     inkscape:current-layer="layer1"
     showgrid="true"
     objecttolerance="10"
     gridtolerance="10"
     inkscape:snap-global="true"
     inkscape:window-width="1600"
     inkscape:window-height="843"
     inkscape:window-x="0"
     inkscape:window-y="0"
     inkscape:window-maximized="1"
     inkscape:snap-object-midpoints="true"
     showguides="true"
     inkscape:guide-bbox="true"
     inkscape:snap-bbox="true"
     inkscape:object-nodes="true"
     inkscape:bbox-nodes="true"
     inkscape:snap-smooth-nodes="true"
     inkscape:bbox-paths="true"
     inkscape:snap-nodes="true">
    <inkscape:grid
       type="xygrid"
       id="grid5595"
       visible="true"
       snapvisiblegridlinesonly="true" />
    <sodipodi:guide
       position="135,190.00001"
       orientation="0,1"
       id="guide4148" />
  </sodipodi:namedview>
  <metadata
     id="metadata5">
    <rdf:RDF>
      <cc:Work
         rdf:about="">
        <dc:format>image/svg+xml</dc:format>
        <dc:type
           rdf:resource="http://purl.org/dc/dcmitype/StillImage" />
        <dc:title>Laser-Vorlage 300x400mm</dc:title>
        <dc:date>2016-07-08</dc:date>
        <dc:creator>
          <cc:Agent>
            <dc:title>Jürgen Weigert &lt;juergen@fabmail.org&gt;</dc:title>
          </cc:Agent>
        </dc:creator>
        <dc:rights>
          <cc:Agent>
            <dc:title>Jürgen Weigert &lt;juergen@fabmail.org&gt;</dc:title>
          </cc:Agent>
        </dc:rights>
        <dc:publisher>
          <cc:Agent>
            <dc:title>Fab Lab Region Nürnberg e.V.</dc:title>
          </cc:Agent>
        </dc:publisher>
        <cc:license
           rdf:resource="http://creativecommons.org/licenses/by-nc-sa/3.0/" />
        <dc:source>http://wiki.fablab-nuernberg.de/files/9/90/Laser-Vorlage-400x300mm.svg</dc:source>
        <dc:description>Windows: C:\Programme\Inkscape\share\templates\default.svg
Mac: /Application/Inkscape.app/Contents/Resources/share/inkscape/templates/default.svg
Linux: /usr/share/inkscape/template/default.svg

Siehe auch https://wiki.fablab-nuernberg.de/w/Inkscape#Standardeinstellungen</dc:description>
      </cc:Work>
      <cc:License
         rdf:about="http://creativecommons.org/licenses/by-nc-sa/3.0/">
        <cc:permits
           rdf:resource="http://creativecommons.org/ns#Reproduction" />
        <cc:permits
           rdf:resource="http://creativecommons.org/ns#Distribution" />
        <cc:requires
           rdf:resource="http://creativecommons.org/ns#Notice" />
        <cc:requires
           rdf:resource="http://creativecommons.org/ns#Attribution" />
        <cc:prohibits
           rdf:resource="http://creativecommons.org/ns#CommercialUse" />
        <cc:permits
           rdf:resource="http://creativecommons.org/ns#DerivativeWorks" />
        <cc:requires
           rdf:resource="http://creativecommons.org/ns#ShareAlike" />
      </cc:License>
    </rdf:RDF>
  </metadata>
  <g
     inkscape:label="Ebene 1"
     inkscape:groupmode="layer"
     id="layer1"
     transform="translate(0,3)">
    <path
       id="y-idler-mount_5mm"
       style="opacity:1;fill:#000000;fill-opacity:1;stroke:#00ff00;stroke-width:0.10000001;stroke-linecap:butt;stroke-linejoin:miter;stroke-miterlimit:4;stroke-dasharray:none;stroke-dashoffset:0;stroke-opacity:1"
       d="m 27.300425,109.00001 c 0,1.65685 -1.343146,3 -3,3 -1.656854,0 -3,-1.34315 -3,-3 0,-1.65685 1.343146,-3 3,-3 1.656854,0 3,1.34315 3,3 z m -9.981526,5.67964 c 2.126325,2.61372 5.555059,3.91239 8.831896,3.12809 7.172055,-1.71661 12.849191,-0.80773 18.849191,-0.80773 l 0,-2 4.999999,0 0,-8 -5.199999,0 0,-2 -5.8,0 0,1.3 -3,0 0,-1.3 -6.000001,0 0,-3 6.000001,0 0,-1.3 3,0 0,1.3 5.8,0 0.2,-9.000003 c -17.000001,0 -25.703196,4.998405 -28.946442,12.395983 -1.352899,3.08585 -0.860971,6.66994 1.265355,9.28366 z"
       inkscape:connector-curvature="0"
       sodipodi:nodetypes="sssssssccccccccccccccccccss"
       inkscape:label="#path4136" />
    <path
       style="opacity:1;fill:#000000;fill-opacity:1;stroke:#00ff00;stroke-width:0.35433072;stroke-linecap:butt;stroke-linejoin:miter;stroke-miterlimit:4;stroke-dasharray:none;stroke-dashoffset:0;stroke-opacity:1"
       d="m 77.952448,435.82617 -10.628906,10.63086 0,74.4082 10.628906,10.63086 81.496772,0 0,-14.17382 17.7168,0 0,-21.25977 -18.42579,0 0,-7.08594 -20.55078,0 0,4.60547 -9.5674,0 0,-4.60547 -22.32322,0 0,-10.63086 22.32322,0 0,-4.60547 9.5674,0 0,4.60547 20.55078,0 0.70899,-42.51953 z m 22.785832,25.93407 0.002,0 21.2591,0 c 2.93537,0 5.31445,1.67063 5.31445,4.60605 0,2.93538 -2.37908,4.60604 -5.31445,4.60604 l -21.2591,0 -0.002,0 c -2.934463,-10e-4 -5.314452,-1.67134 -5.314452,-4.60604 0,-2.93475 2.379989,-4.60505 5.314452,-4.60605 z m 0,34.36962 0.002,0 21.2591,0 c 2.93537,0 5.31445,1.67066 5.31445,4.60604 0,2.93538 -2.37908,4.60702 -5.31445,4.60702 l -21.2591,0 -0.002,0 c -2.934459,-10e-4 -5.314452,-1.67231 -5.314452,-4.60702 0,-2.93475 2.379993,-4.60505 5.314452,-4.60604 z"
       transform="matrix(0.28222224,0,0,0.28222224,-1.7225479e-5,-3)"
       id="y-endstop-mount_5mm"
       inkscape:connector-curvature="0"
       sodipodi:nodetypes="cccccccccccccccccccccccccsssccscccsssccsc" />
    <g
       id="g3354"
       transform="translate(13.630419,-2.1802736)" />
    <path
       sodipodi:nodetypes="cccccccccccccccccccccccc"
       inkscape:connector-curvature="0"
       id="rect3338_2mm"
       d="m 16.000205,167.00031 0,10.99951 1.999714,0 22.106491,0 c -0.06897,-0.32888 -0.104614,-0.66388 -0.106386,-0.99991 -4.3e-5,-2.76148 2.238592,-5.00012 5.000075,-5.00007 2.761482,-5e-5 5.000117,2.23859 5.000075,5.00007 -1.38e-4,0.33586 -0.03412,0.67086 -0.101425,0.99991 l 28.101509,0 1.999711,0 0,-10.99951 z m 0,30.99961 0,11.99996 11.999958,0 0,-1.99972 -10.000244,-10.00024 z m 62.000053,0 -10.000246,10.00024 0,1.99972 11.999957,0 0,-11.99996 z"
       style="opacity:1;fill:#000000;fill-opacity:0.30395137;fill-rule:evenodd;stroke:#ff0000;stroke-width:0.10666668;stroke-linecap:butt;stroke-linejoin:round;stroke-miterlimit:4;stroke-dasharray:none;stroke-dashoffset:0;stroke-opacity:1" />
    <path
       sodipodi:nodetypes="ccccccccccccccccc"
       inkscape:connector-curvature="0"
       style="opacity:1;fill:#000000;fill-opacity:0.30395137;fill-rule:evenodd;stroke:#ff0000;stroke-width:0.10666668;stroke-linecap:butt;stroke-linejoin:round;stroke-miterlimit:4;stroke-dasharray:none;stroke-dashoffset:0;stroke-opacity:1"
       d="m 15.000205,167.00031 0.369625,22.06939 -0.369625,21.93018 65.999765,0 -0.369624,-22.66943 0.369624,-21.33014 -6.999882,0 0,3.99962 3.999617,0 -0.369624,17.60774 0.369624,19.39249 -59.999786,0 0.369624,-18.74565 -0.369624,-18.25458 4.000169,0 0,-3.99962 z"
       id="path4143_13mm"
       inkscape:label="#path4143_5mm" />
    <rect
       style="opacity:1;fill:#000000;fill-opacity:0.30395137;fill-rule:evenodd;stroke:#ff0000;stroke-width:0.10666668;stroke-linecap:butt;stroke-linejoin:round;stroke-miterlimit:4;stroke-dasharray:none;stroke-dashoffset:0;stroke-opacity:1"
       id="rect4149_5mm"
       width="57.000004"
       height="4"
       x="18.999985"
       y="167"
       inkscape:label="#rect4149" />
    <g
       id="g4179"
       style="fill:none"
       transform="translate(-2.2845805e-6,30.000001)">
      <rect
         style="opacity:1;fill:none;fill-opacity:1;fill-rule:evenodd;stroke:#ff0000;stroke-width:0.20000002;stroke-linecap:butt;stroke-linejoin:round;stroke-miterlimit:4;stroke-dasharray:none;stroke-dashoffset:0;stroke-opacity:1"
         id="rect4142"
         width="155"
         height="160"
         x="94.999985"
         y="87.000008"
         rx="3.9999998"
         ry="4" />
      <rect
         style="opacity:1;fill:none;fill-opacity:1;fill-rule:evenodd;stroke:#0000ff;stroke-width:0.20000002;stroke-linecap:butt;stroke-linejoin:round;stroke-miterlimit:4;stroke-dasharray:none;stroke-dashoffset:0;stroke-opacity:1"
         id="rect4150"
         width="120.00001"
         height="140.00002"
         x="109.99999"
         y="107.00001"
         rx="3.9999921"
         ry="3.9999921" />
      <g
         id="g4169"
         transform="translate(-9.75,16.749985)"
         style="fill:none;stroke:#ff0000;stroke-opacity:1">
        <g
           id="g4159"
           style="fill:none;stroke:#ff0000;stroke-opacity:1">
          <circle
             style="opacity:1;fill:none;fill-opacity:0.30395137;stroke:#ff0000;stroke-width:0.20000002;stroke-linecap:butt;stroke-linejoin:miter;stroke-miterlimit:4;stroke-dasharray:none;stroke-dashoffset:0;stroke-opacity:1"
             id="path4155"
             cx="126.74999"
             cy="125.25002"
             r="1.7500001" />
          <circle
             r="1.7500001"
             cy="125.25002"
             cx="232.75"
             id="circle4157"
             style="opacity:1;fill:none;fill-opacity:0.30395137;stroke:#ff0000;stroke-width:0.20000002;stroke-linecap:butt;stroke-linejoin:miter;stroke-miterlimit:4;stroke-dasharray:none;stroke-dashoffset:0;stroke-opacity:1" />
        </g>
        <g
           transform="translate(0,80.000008)"
           id="g4163"
           style="fill:none;stroke:#ff0000;stroke-opacity:1">
          <circle
             r="1.7500001"
             cy="125.25002"
             cx="126.74999"
             id="circle4165"
             style="opacity:1;fill:none;fill-opacity:0.30395137;stroke:#ff0000;stroke-width:0.20000002;stroke-linecap:butt;stroke-linejoin:miter;stroke-miterlimit:4;stroke-dasharray:none;stroke-dashoffset:0;stroke-opacity:1" />
          <circle
             style="opacity:1;fill:none;fill-opacity:0.30395137;stroke:#ff0000;stroke-width:0.20000002;stroke-linecap:butt;stroke-linejoin:miter;stroke-miterlimit:4;stroke-dasharray:none;stroke-dashoffset:0;stroke-opacity:1"
             id="circle4167"
             cx="232.75"
             cy="125.25002"
             r="1.7500001" />
        </g>
      </g>
    </g>
    <rect
       style="opacity:1;fill:none;fill-opacity:1;fill-rule:evenodd;stroke:#ff0000;stroke-width:0.10666668;stroke-linecap:butt;stroke-linejoin:round;stroke-miterlimit:4;stroke-dasharray:none;stroke-dashoffset:0;stroke-opacity:1"
       id="rect4203"
       width="6.3000002"
       height="1.8"
       x="64.999985"
       y="132.00002" />
  </g>
</svg>
