<?xml version="1.0" encoding="UTF-8" standalone="no"?>
<!-- Created with Inkscape (http://www.inkscape.org/) -->

<svg
   xmlns:dc="http://purl.org/dc/elements/1.1/"
   xmlns:cc="http://creativecommons.org/ns#"
   xmlns:rdf="http://www.w3.org/1999/02/22-rdf-syntax-ns#"
   xmlns:svg="http://www.w3.org/2000/svg"
   xmlns="http://www.w3.org/2000/svg"
   xmlns:sodipodi="http://sodipodi.sourceforge.net/DTD/sodipodi-0.dtd"
   xmlns:inkscape="http://www.inkscape.org/namespaces/inkscape"
   version="1.1"
   id="svg2"
   width="400mm"
   height="300mm"
   viewBox="0 0 1511.811 1133.8582"
   sodipodi:docname="back.svg"
   inkscape:version="0.92.1 unknown">
  <metadata
     id="metadata8">
    <rdf:RDF>
      <cc:Work
         rdf:about="">
        <dc:format>image/svg+xml</dc:format>
        <dc:type
           rdf:resource="http://purl.org/dc/dcmitype/StillImage" />
        <dc:title />
        <cc:license
           rdf:resource="http://creativecommons.org/licenses/by-nc-sa/4.0/" />
        <dc:creator>
          <cc:Agent>
            <dc:title>Jürgen Weigert &lt;juergen@fabmail.org&gt;</dc:title>
          </cc:Agent>
        </dc:creator>
        <dc:source>own scans and measurements</dc:source>
      </cc:Work>
      <cc:License
         rdf:about="http://creativecommons.org/licenses/by-nc-sa/4.0/">
        <cc:permits
           rdf:resource="http://creativecommons.org/ns#Reproduction" />
        <cc:permits
           rdf:resource="http://creativecommons.org/ns#Distribution" />
        <cc:requires
           rdf:resource="http://creativecommons.org/ns#Notice" />
        <cc:requires
           rdf:resource="http://creativecommons.org/ns#Attribution" />
        <cc:prohibits
           rdf:resource="http://creativecommons.org/ns#CommercialUse" />
        <cc:permits
           rdf:resource="http://creativecommons.org/ns#DerivativeWorks" />
        <cc:requires
           rdf:resource="http://creativecommons.org/ns#ShareAlike" />
      </cc:License>
    </rdf:RDF>
  </metadata>
  <defs
     id="defs6">
    <clipPath
       id="clipPath29"
       clipPathUnits="userSpaceOnUse">
      <rect
         y="21.337626"
         x="8.297966"
         height="387.63358"
         width="482.46753"
         id="rect31"
         style="opacity:1;fill:#ffff00;fill-opacity:0.53082192;stroke:#0000ff;stroke-width:0.75590551;stroke-linecap:square;stroke-linejoin:miter;stroke-miterlimit:4;stroke-dasharray:none;stroke-opacity:1" />
    </clipPath>
    <clipPath
       id="clipPath29-1"
       clipPathUnits="userSpaceOnUse">
      <rect
         y="21.337626"
         x="8.297966"
         height="387.63358"
         width="482.46753"
         id="rect31-2"
         style="opacity:1;fill:#ffff00;fill-opacity:0.53082192;stroke:#0000ff;stroke-width:0.75590551;stroke-linecap:square;stroke-linejoin:miter;stroke-miterlimit:4;stroke-dasharray:none;stroke-opacity:1" />
    </clipPath>
    <clipPath
       clipPathUnits="userSpaceOnUse"
       id="clipPath29-5">
      <rect
         style="opacity:1;fill:#ffff00;fill-opacity:0.53082192;stroke:#0000ff;stroke-width:0.75590551;stroke-linecap:square;stroke-linejoin:miter;stroke-miterlimit:4;stroke-dasharray:none;stroke-opacity:1"
         id="rect31-3"
         width="482.46753"
         height="387.63358"
         x="8.297966"
         y="21.337626" />
    </clipPath>
    <clipPath
       id="clipPath29-6"
       clipPathUnits="userSpaceOnUse">
      <rect
         y="21.337626"
         x="8.297966"
         height="387.63358"
         width="482.46753"
         id="rect31-26"
         style="opacity:1;fill:#ffff00;fill-opacity:0.53082192;stroke:#0000ff;stroke-width:0.75590551;stroke-linecap:square;stroke-linejoin:miter;stroke-miterlimit:4;stroke-dasharray:none;stroke-opacity:1" />
    </clipPath>
    <clipPath
       clipPathUnits="userSpaceOnUse"
       id="clipPath29-5-1">
      <rect
         style="opacity:1;fill:#ffff00;fill-opacity:0.53082192;stroke:#0000ff;stroke-width:0.75590551;stroke-linecap:square;stroke-linejoin:miter;stroke-miterlimit:4;stroke-dasharray:none;stroke-opacity:1"
         id="rect31-3-8"
         width="482.46753"
         height="387.63358"
         x="8.297966"
         y="21.337626" />
    </clipPath>
    <clipPath
       id="clipPath29-7"
       clipPathUnits="userSpaceOnUse">
      <rect
         y="21.337626"
         x="8.297966"
         height="387.63358"
         width="482.46753"
         id="rect31-5"
         style="opacity:1;fill:#ffff00;fill-opacity:0.53082192;stroke:#0000ff;stroke-width:0.75590551;stroke-linecap:square;stroke-linejoin:miter;stroke-miterlimit:4;stroke-dasharray:none;stroke-opacity:1" />
    </clipPath>
    <clipPath
       id="clipPath29-4"
       clipPathUnits="userSpaceOnUse">
      <rect
         y="21.337626"
         x="8.297966"
         height="387.63358"
         width="482.46753"
         id="rect31-7"
         style="opacity:1;fill:#ffff00;fill-opacity:0.53082192;stroke:#0000ff;stroke-width:0.75590551;stroke-linecap:square;stroke-linejoin:miter;stroke-miterlimit:4;stroke-dasharray:none;stroke-opacity:1" />
    </clipPath>
    <clipPath
       clipPathUnits="userSpaceOnUse"
       id="clipPath29-5-8">
      <rect
         style="opacity:1;fill:#ffff00;fill-opacity:0.53082192;stroke:#0000ff;stroke-width:0.75590551;stroke-linecap:square;stroke-linejoin:miter;stroke-miterlimit:4;stroke-dasharray:none;stroke-opacity:1"
         id="rect31-3-4"
         width="482.46753"
         height="387.63358"
         x="8.297966"
         y="21.337626" />
    </clipPath>
  </defs>
  <sodipodi:namedview
     pagecolor="#ffffff"
     bordercolor="#666666"
     borderopacity="1"
     objecttolerance="10"
     gridtolerance="10"
     guidetolerance="10"
     inkscape:pageopacity="0"
     inkscape:pageshadow="2"
     inkscape:window-width="1600"
     inkscape:window-height="843"
     id="namedview4"
     showgrid="true"
     units="mm"
     inkscape:document-units="mm"
     inkscape:snap-global="true"
     inkscape:zoom="0.58296528"
     inkscape:cx="755.90551"
     inkscape:cy="566.92913"
     inkscape:window-x="320"
     inkscape:window-y="1080"
     inkscape:window-maximized="1"
     inkscape:current-layer="svg2"
     inkscape:snap-object-midpoints="true">
    <inkscape:grid
       type="xygrid"
       id="grid12"
       spacingx="3.7795275"
       spacingy="3.7795275"
       enabled="true"
       visible="true"
       snapvisiblegridlinesonly="false" />
    <inkscape:grid
       type="xygrid"
       id="grid838"
       visible="false"
       snapvisiblegridlinesonly="false" />
  </sodipodi:namedview>
  <path
     inkscape:connector-curvature="0"
     id="rect5079"
     d="m 49.775392,15.116908 c -21.29348,0 -38.437504,16.858294 -38.437504,37.796874 v 30.234384 34.017574 188.97657 c 0,6.28157 5.14517,11.33789 11.53321,11.33789 H 226.58008 c 6.38804,0 11.5293,-5.05632 11.5293,-11.33789 V 117.16574 83.148166 52.913782 c 0,-20.93858 -17.14208,-37.796874 -38.43555,-37.796874 z m 40.933594,8.69336 a 6.0472446,6.0472446 0 0 1 6.04687,6.048824 6.0472446,6.0472446 0 0 1 -6.04687,6.04688 6.0472446,6.0472446 0 0 1 -6.04688,-6.04688 6.0472446,6.0472446 0 0 1 6.04688,-6.048824 z m 68.031244,0 a 6.0472446,6.0472446 0 0 1 6.04688,6.048824 6.0472446,6.0472446 0 0 1 -6.04688,6.04688 6.0472446,6.0472446 0 0 1 -6.04687,-6.04688 6.0472446,6.0472446 0 0 1 6.04687,-6.048824 z M 38.515622,74.909876 a 6.0472449,6.0472449 0 0 1 6.04688,6.04883 6.0472449,6.0472449 0 0 1 -6.04688,6.04688 6.0472449,6.0472449 0 0 1 -6.04687,-6.04688 6.0472449,6.0472449 0 0 1 6.04687,-6.04883 z m 166.298828,0 a 6.0472449,6.0472449 0 0 1 6.04688,6.04883 6.0472449,6.0472449 0 0 1 -6.04688,6.04688 6.0472449,6.0472449 0 0 1 -6.04687,-6.04688 6.0472449,6.0472449 0 0 1 6.04687,-6.04883 z M 38.515622,108.92746 a 6.0472449,6.0472449 0 0 1 6.04688,6.04688 6.0472449,6.0472449 0 0 1 -6.04688,6.04687 6.0472449,6.0472449 0 0 1 -6.04687,-6.04687 6.0472449,6.0472449 0 0 1 6.04687,-6.04688 z m 166.298828,0 a 6.0472449,6.0472449 0 0 1 6.04688,6.04688 6.0472449,6.0472449 0 0 1 -6.04688,6.04687 6.0472449,6.0472449 0 0 1 -6.04687,-6.04687 6.0472449,6.0472449 0 0 1 6.04687,-6.04688 z m -114.105464,5.5918 a 6.0472446,6.0472446 0 0 1 6.04687,6.04688 6.0472446,6.0472446 0 0 1 -6.04687,6.04882 6.0472446,6.0472446 0 0 1 -6.04688,-6.04882 6.0472446,6.0472446 0 0 1 6.04688,-6.04688 z m 68.031244,0 a 6.0472446,6.0472446 0 0 1 6.04688,6.04688 6.0472446,6.0472446 0 0 1 -6.04688,6.04882 6.0472446,6.0472446 0 0 1 -6.04687,-6.04882 6.0472446,6.0472446 0 0 1 6.04687,-6.04688 z m -71.810544,24.69531 h 75.589844 v 22.67774 H 86.929686 Z m -26.457034,4.40821 a 7.5590558,7.5590558 0 0 1 7.558594,7.55859 7.5590558,7.5590558 0 0 1 -7.558594,7.55859 7.5590558,7.5590558 0 0 1 -7.55859,-7.55859 7.5590558,7.5590558 0 0 1 7.55859,-7.55859 z m 128.503908,0 a 7.5590558,7.5590558 0 0 1 7.5586,7.55859 7.5590558,7.5590558 0 0 1 -7.5586,7.55859 7.5590558,7.5590558 0 0 1 -7.55859,-7.55859 7.5590558,7.5590558 0 0 1 7.55859,-7.55859 z M 26.457032,162.51926 h 22.67773 v 62.36328 h -22.67773 z m 173.857418,0 h 22.67774 v 62.36328 H 200.31445 Z M 90.708986,193.89035 a 6.0472449,6.0472449 0 0 1 6.04687,6.04688 6.0472449,6.0472449 0 0 1 -6.04687,6.04687 6.0472449,6.0472449 0 0 1 -6.04688,-6.04687 6.0472449,6.0472449 0 0 1 6.04688,-6.04688 z m 68.031244,0 a 6.0472449,6.0472449 0 0 1 6.04688,6.04688 6.0472449,6.0472449 0 0 1 -6.04688,6.04687 6.0472449,6.0472449 0 0 1 -6.04687,-6.04687 6.0472449,6.0472449 0 0 1 6.04687,-6.04688 z m -68.031244,90.70899 a 6.0472449,6.0472449 0 0 1 6.04687,6.04687 6.0472449,6.0472449 0 0 1 -6.04687,6.04688 6.0472449,6.0472449 0 0 1 -6.04688,-6.04688 6.0472449,6.0472449 0 0 1 6.04688,-6.04687 z m 68.031244,0 a 6.0472449,6.0472449 0 0 1 6.04688,6.04687 6.0472449,6.0472449 0 0 1 -6.04688,6.04688 6.0472449,6.0472449 0 0 1 -6.04687,-6.04688 6.0472449,6.0472449 0 0 1 6.04687,-6.04687 z"
     style="opacity:1;fill:#ffff00;fill-opacity:0.27054796;stroke:#ff0000;stroke-width:0.75590551;stroke-linecap:square;stroke-linejoin:miter;stroke-miterlimit:4;stroke-dasharray:none;stroke-opacity:1" />
</svg>
