<?xml version="1.0" encoding="UTF-8" standalone="no"?>
<!-- Created with Inkscape (http://www.inkscape.org/) -->

<svg
   xmlns:dc="http://purl.org/dc/elements/1.1/"
   xmlns:cc="http://creativecommons.org/ns#"
   xmlns:rdf="http://www.w3.org/1999/02/22-rdf-syntax-ns#"
   xmlns:svg="http://www.w3.org/2000/svg"
   xmlns="http://www.w3.org/2000/svg"
   xmlns:sodipodi="http://sodipodi.sourceforge.net/DTD/sodipodi-0.dtd"
   xmlns:inkscape="http://www.inkscape.org/namespaces/inkscape"
   version="1.1"
   id="svg2"
   width="400mm"
   height="300mm"
   viewBox="0 0 1511.811 1133.8582"
   sodipodi:docname="back+25mm.svg"
   inkscape:version="0.92.1 unknown">
  <metadata
     id="metadata8">
    <rdf:RDF>
      <cc:Work
         rdf:about="">
        <dc:format>image/svg+xml</dc:format>
        <dc:type
           rdf:resource="http://purl.org/dc/dcmitype/StillImage" />
        <dc:title></dc:title>
        <cc:license
           rdf:resource="http://creativecommons.org/licenses/by-nc-sa/4.0/" />
        <dc:creator>
          <cc:Agent>
            <dc:title>Jürgen Weigert &lt;juergen@fabmail.org&gt;</dc:title>
          </cc:Agent>
        </dc:creator>
        <dc:source>own scans and measurements</dc:source>
      </cc:Work>
      <cc:License
         rdf:about="http://creativecommons.org/licenses/by-nc-sa/4.0/">
        <cc:permits
           rdf:resource="http://creativecommons.org/ns#Reproduction" />
        <cc:permits
           rdf:resource="http://creativecommons.org/ns#Distribution" />
        <cc:requires
           rdf:resource="http://creativecommons.org/ns#Notice" />
        <cc:requires
           rdf:resource="http://creativecommons.org/ns#Attribution" />
        <cc:prohibits
           rdf:resource="http://creativecommons.org/ns#CommercialUse" />
        <cc:permits
           rdf:resource="http://creativecommons.org/ns#DerivativeWorks" />
        <cc:requires
           rdf:resource="http://creativecommons.org/ns#ShareAlike" />
      </cc:License>
    </rdf:RDF>
  </metadata>
  <defs
     id="defs6">
    <clipPath
       id="clipPath29"
       clipPathUnits="userSpaceOnUse">
      <rect
         y="21.337626"
         x="8.297966"
         height="387.63358"
         width="482.46753"
         id="rect31"
         style="opacity:1;fill:#ffff00;fill-opacity:0.53082192;stroke:#0000ff;stroke-width:0.75590551;stroke-linecap:square;stroke-linejoin:miter;stroke-miterlimit:4;stroke-dasharray:none;stroke-opacity:1" />
    </clipPath>
    <clipPath
       id="clipPath29-1"
       clipPathUnits="userSpaceOnUse">
      <rect
         y="21.337626"
         x="8.297966"
         height="387.63358"
         width="482.46753"
         id="rect31-2"
         style="opacity:1;fill:#ffff00;fill-opacity:0.53082192;stroke:#0000ff;stroke-width:0.75590551;stroke-linecap:square;stroke-linejoin:miter;stroke-miterlimit:4;stroke-dasharray:none;stroke-opacity:1" />
    </clipPath>
    <clipPath
       clipPathUnits="userSpaceOnUse"
       id="clipPath29-5">
      <rect
         style="opacity:1;fill:#ffff00;fill-opacity:0.53082192;stroke:#0000ff;stroke-width:0.75590551;stroke-linecap:square;stroke-linejoin:miter;stroke-miterlimit:4;stroke-dasharray:none;stroke-opacity:1"
         id="rect31-3"
         width="482.46753"
         height="387.63358"
         x="8.297966"
         y="21.337626" />
    </clipPath>
    <clipPath
       id="clipPath29-6"
       clipPathUnits="userSpaceOnUse">
      <rect
         y="21.337626"
         x="8.297966"
         height="387.63358"
         width="482.46753"
         id="rect31-26"
         style="opacity:1;fill:#ffff00;fill-opacity:0.53082192;stroke:#0000ff;stroke-width:0.75590551;stroke-linecap:square;stroke-linejoin:miter;stroke-miterlimit:4;stroke-dasharray:none;stroke-opacity:1" />
    </clipPath>
    <clipPath
       clipPathUnits="userSpaceOnUse"
       id="clipPath29-5-1">
      <rect
         style="opacity:1;fill:#ffff00;fill-opacity:0.53082192;stroke:#0000ff;stroke-width:0.75590551;stroke-linecap:square;stroke-linejoin:miter;stroke-miterlimit:4;stroke-dasharray:none;stroke-opacity:1"
         id="rect31-3-8"
         width="482.46753"
         height="387.63358"
         x="8.297966"
         y="21.337626" />
    </clipPath>
    <clipPath
       id="clipPath29-7"
       clipPathUnits="userSpaceOnUse">
      <rect
         y="21.337626"
         x="8.297966"
         height="387.63358"
         width="482.46753"
         id="rect31-5"
         style="opacity:1;fill:#ffff00;fill-opacity:0.53082192;stroke:#0000ff;stroke-width:0.75590551;stroke-linecap:square;stroke-linejoin:miter;stroke-miterlimit:4;stroke-dasharray:none;stroke-opacity:1" />
    </clipPath>
    <clipPath
       id="clipPath29-4"
       clipPathUnits="userSpaceOnUse">
      <rect
         y="21.337626"
         x="8.297966"
         height="387.63358"
         width="482.46753"
         id="rect31-7"
         style="opacity:1;fill:#ffff00;fill-opacity:0.53082192;stroke:#0000ff;stroke-width:0.75590551;stroke-linecap:square;stroke-linejoin:miter;stroke-miterlimit:4;stroke-dasharray:none;stroke-opacity:1" />
    </clipPath>
    <clipPath
       clipPathUnits="userSpaceOnUse"
       id="clipPath29-5-8">
      <rect
         style="opacity:1;fill:#ffff00;fill-opacity:0.53082192;stroke:#0000ff;stroke-width:0.75590551;stroke-linecap:square;stroke-linejoin:miter;stroke-miterlimit:4;stroke-dasharray:none;stroke-opacity:1"
         id="rect31-3-4"
         width="482.46753"
         height="387.63358"
         x="8.297966"
         y="21.337626" />
    </clipPath>
  </defs>
  <sodipodi:namedview
     pagecolor="#ffffff"
     bordercolor="#666666"
     borderopacity="1"
     objecttolerance="10"
     gridtolerance="10"
     guidetolerance="10"
     inkscape:pageopacity="0"
     inkscape:pageshadow="2"
     inkscape:window-width="1600"
     inkscape:window-height="843"
     id="namedview4"
     showgrid="false"
     units="mm"
     inkscape:document-units="mm"
     inkscape:snap-global="true"
     inkscape:zoom="0.65500529"
     inkscape:cx="124.72364"
     inkscape:cy="691.65301"
     inkscape:window-x="320"
     inkscape:window-y="1080"
     inkscape:window-maximized="1"
     inkscape:current-layer="svg2"
     inkscape:snap-object-midpoints="true"
     inkscape:snap-bbox="true"
     inkscape:snap-midpoints="true">
    <inkscape:grid
       type="xygrid"
       id="grid12"
       spacingx="3.7795275"
       spacingy="3.7795275"
       enabled="true"
       visible="true"
       snapvisiblegridlinesonly="false" />
    <inkscape:grid
       type="xygrid"
       id="grid838"
       visible="false"
       snapvisiblegridlinesonly="false" />
  </sodipodi:namedview>
  <path
     style="opacity:1;fill:#ffff00;fill-opacity:0.27054796;stroke:#ff0000;stroke-width:0.75590551;stroke-linecap:square;stroke-linejoin:miter;stroke-miterlimit:4;stroke-dasharray:none;stroke-opacity:1"
     d="m 98.267578,5.6690121 c -16.75087,0 -30.236328,13.4854609 -30.236328,30.2363269 V 64.251043 H 49.775391 c -21.293484,0 -38.4375,16.858294 -38.4375,37.796877 v 30.23438 34.01758 177.63867 c 0,6.28157 5.145159,11.33789 11.533203,11.33789 H 226.58008 c 6.38804,0 11.52928,-5.05632 11.5293,-11.33789 V 166.29988 132.2823 102.04792 c 0,-20.938583 -17.14208,-37.796877 -38.43555,-37.796877 H 181.41602 V 35.905339 c 0,-16.750866 -13.48547,-30.2363269 -30.23633,-30.2363269 z M 158.71094,20.090886 c 3.34027,2.01e-4 6.04775,2.70855 6.04687,6.048828 -2e-4,3.33952 -2.70736,6.046673 -6.04687,6.046875 -3.33952,-2.07e-4 -6.04668,-2.707359 -6.04688,-6.046875 -8.7e-4,-3.340274 2.7066,-6.048621 6.04688,-6.048828 z m -68.031252,0.002 c 3.339516,2e-4 6.046672,2.707355 6.046874,6.046875 -2.07e-4,3.339513 -2.707362,6.046675 -6.046874,6.046875 -3.339511,-2.1e-4 -6.046666,-2.707362 -6.046876,-6.046875 2.05e-4,-3.33951 2.707361,-6.046665 6.046876,-6.046875 z m 0.0293,52.851563 c 3.340276,2.07e-4 6.047747,2.708557 6.046875,6.048828 -2.01e-4,3.339512 -2.707359,6.046668 -6.046875,6.046875 -3.339516,-2.01e-4 -6.046674,-2.707359 -6.046875,-6.046875 -8.72e-4,-3.340275 2.7066,-6.048627 6.046875,-6.048828 z m 68.031242,0 c 3.34028,2.01e-4 6.04775,2.708553 6.04688,6.048828 -2e-4,3.339516 -2.70736,6.046674 -6.04688,6.046875 -3.33951,-2.07e-4 -6.04667,-2.707363 -6.04687,-6.046875 -8.7e-4,-3.340271 2.7066,-6.048621 6.04687,-6.048828 z M 86.929688,93.860417 H 162.51953 V 116.53816 H 86.929688 Z m -34.015626,4.408204 c 4.174393,2.6e-4 7.558337,3.384199 7.558594,7.558599 -2.57e-4,4.17439 -3.384201,7.55834 -7.558594,7.5586 -4.174387,-2.6e-4 -7.558336,-3.38421 -7.558593,-7.5586 2.57e-4,-4.1744 3.384206,-7.558339 7.558593,-7.558599 z m 143.621098,0 c 4.17439,2.5e-4 7.55833,3.384199 7.55859,7.558599 -2.6e-4,4.17439 -3.3842,7.55835 -7.55859,7.5586 -4.17439,-2.6e-4 -7.55834,-3.38421 -7.5586,-7.5586 2.6e-4,-4.1744 3.38421,-7.558339 7.5586,-7.558599 z M 26.457031,127.70027 h 22.677735 v 83.95312 59.66797 2.69531 H 26.457031 v -2.69531 -59.66797 z m 64.251953,35.95312 c 3.339516,2.1e-4 6.046674,2.70737 6.046875,6.04688 8.7e-4,3.34027 -2.706601,6.04861 -6.046875,6.04882 -3.340274,-2e-4 -6.047745,-2.70855 -6.046875,-6.04882 2.01e-4,-3.33952 2.707359,-6.04668 6.046875,-6.04688 z m 68.031246,0 c 3.33952,2e-4 6.04668,2.70736 6.04688,6.04688 8.7e-4,3.34027 -2.70661,6.04862 -6.04688,6.04882 -3.34027,-2.1e-4 -6.04774,-2.70855 -6.04687,-6.04882 2e-4,-3.33951 2.70736,-6.04667 6.04687,-6.04688 z m 41.57422,49.29688 h 22.67774 v 58.37109 2.69531 h -22.67774 v -2.69531 z M 90.708984,243.02448 c 3.339516,2.5e-4 6.046673,2.70737 6.046875,6.04688 -2.07e-4,3.33951 -2.707363,6.04663 -6.046875,6.04688 -3.339512,-2.4e-4 -6.046668,-2.70737 -6.046875,-6.04688 2.02e-4,-3.33952 2.707359,-6.04664 6.046875,-6.04688 z m 68.031246,0 c 3.33952,2.4e-4 6.04668,2.70736 6.04688,6.04688 -2.1e-4,3.33951 -2.70737,6.04664 -6.04688,6.04688 -3.33951,-2.5e-4 -6.04666,-2.70737 -6.04687,-6.04688 2e-4,-3.33951 2.70736,-6.04663 6.04687,-6.04688 z m -68.031246,90.70899 c 3.339512,2.1e-4 6.046668,2.70736 6.046875,6.04687 -2.02e-4,3.33951 -2.707359,6.04667 -6.046875,6.04688 -3.339516,-2e-4 -6.046673,-2.70736 -6.046875,-6.04688 2.07e-4,-3.33951 2.707363,-6.04667 6.046875,-6.04687 z m 68.031246,0 c 3.33951,2e-4 6.04667,2.70736 6.04688,6.04687 -2e-4,3.33952 -2.70736,6.04668 -6.04688,6.04688 -3.33951,-2.1e-4 -6.04667,-2.70737 -6.04687,-6.04688 2.1e-4,-3.33951 2.70736,-6.04666 6.04687,-6.04687 z"
     id="rect5079"
     inkscape:connector-curvature="0" />
  <path
     style="opacity:1;fill:#ffff00;fill-opacity:0.27054796;stroke:#ff0000;stroke-width:0.75590551;stroke-linecap:square;stroke-linejoin:miter;stroke-miterlimit:4;stroke-dasharray:none;stroke-dashoffset:0;stroke-opacity:1"
     d="m 30.236328,357.16543 c -10.46929,0 -18.898437,8.42915 -18.898437,18.89844 v 136.0625 h 34.96289 v -13.22852 h -4.724609 v -11.33984 h 4.724609 V 470.5502 h 13.228516 v 17.00781 h 4.724609 v 11.33984 h -4.724609 v 13.22852 h 27.400391 v 22.67773 h 75.589842 v -22.67773 h 27.4043 v -13.22852 h -4.72461 v -11.33984 h 4.72461 V 470.5502 h 13.22851 v 17.00781 h 4.72461 v 11.33984 h -4.72461 v 13.22852 h 34.95704 v -136.0625 c 0,-10.46929 -8.42719,-18.89844 -18.89649,-18.89844 h -34.96094 v 26.45703 h 4.72461 v 11.33985 h -4.72461 v 17.00781 h -13.22851 v -17.00781 h -4.72461 v -11.33985 h 4.72461 v -26.45703 h -39.68555 v 22.67774 h 4.72461 v 11.33984 h -4.72461 v 7.41602 c 14.86433,3.12735 25.50699,16.23798 25.51172,31.42773 -0.0148,8.08654 -3.0787,15.87005 -8.58008,21.79687 0.0489,0.60686 0.0743,1.2154 0.0762,1.82422 -5.3e-4,13.04534 -10.57574,23.62058 -23.62109,23.6211 -13.04611,5.5e-4 -23.62252,-10.57499 -23.62305,-23.6211 0.007,-0.59922 0.0371,-1.19797 0.0898,-1.79492 -5.513232,-5.93215 -8.582604,-13.72766 -8.593754,-21.82617 0.01765,-15.17949 10.657404,-28.27516 25.511724,-31.40039 v -7.44336 h -4.72461 v -11.33984 h 4.72461 V 357.16543 H 78.423828 v 26.45703 h 4.72461 v 11.33985 h -4.72461 v 17.00781 H 65.195312 v -17.00781 h -4.724609 v -11.33985 h 4.724609 v -26.45703 z m -3.779297,37.79492 h 22.677735 v 41.57422 H 26.457031 Z m 173.857419,0 h 22.67774 v 41.57422 H 200.31445 Z M 37.794922,447.87246 c 3.13155,-3.5e-4 5.670258,2.53838 5.669922,5.66992 3.31e-4,3.13155 -2.538376,5.67029 -5.669922,5.66993 -3.130781,-7.2e-4 -5.6683,-2.53914 -5.667969,-5.66993 -3.36e-4,-3.13077 2.537184,-5.66919 5.667969,-5.66992 z m 173.859378,0.001 c 3.13078,7.3e-4 5.66831,2.53915 5.66797,5.66992 3.3e-4,3.13079 -2.53719,5.6692 -5.66797,5.66992 -3.13154,3.5e-4 -5.67026,-2.53837 -5.66992,-5.66992 -3.5e-4,-3.13153 2.53837,-5.67026 5.66992,-5.66992 z"
     id="rect4707"
     inkscape:connector-curvature="0"
     sodipodi:nodetypes="ssccccccccccccccccccccccccccccccsscccccccccccccccccccccccccccccccccccccccccccscccccccccccccccccccc" />
  <path
     style="opacity:1;fill:#ffff00;fill-opacity:0.27054796;stroke:#ff0000;stroke-width:0.75590551;stroke-linecap:square;stroke-linejoin:miter;stroke-miterlimit:4;stroke-dasharray:none;stroke-opacity:1"
     d="m 288.0087,249.15352 c 6.04097,-0.007 11.62719,-3.21033 14.68554,-8.41992 l 0.38477,-0.71093 29.38281,-61.89645 5.99023,-46.11326 24.9321,-17.37499 h 2.10501 28.92774 c 1.61926,7.09639 7.92628,12.1331 15.20507,12.14257 7.28098,-0.007 13.59118,-5.04404 15.21093,-12.14257 h 10.36329 l 1.67969,-12.93164 c 0.0253,-0.19466 0.0371,-0.38636 0.0371,-0.57617 -5e-4,-2.847103 -2.76254,-5.09374 -5.70704,-5.09374 h -5.66797 V 14.776677 c 0.0255,-5.2345909 -4.21457,-9.4492209 -9.44921,-9.4492209 h -40.96289 c -5.23464,0 -9.63672,4.21457 -9.63672,9.4492209 V 54.698559 L 341.4555,71.175108 h -10.40579 v -0.002 H 282.52237 V 93.85082 h -11.52148 v 52.07614 h 12.24023 v -3.78125 h 13.22656 v 3.78125 h 16.38672 v 13.60546 h -16.38672 v 3.7793 h -13.22656 v -3.7793 h -12.24023 v 13.68951 h -21.16602 v 36.20116 h 21.16602 v 21.76755 c -0.0231,0.30295 -9.2e-4,0.56932 -0.008,0.87305 5.2e-4,9.41774 7.59787,17.0893 17.01562,17.08983 z m 0.64062,-11.05859 c -3.33951,-2e-4 -6.04667,-2.70735 -6.04687,-6.04686 2e-4,-3.33951 2.70736,-6.04667 6.04687,-6.04687 3.33952,2e-4 6.04668,2.70736 6.04688,6.04687 -2.1e-4,3.33951 -2.70737,6.04666 -6.04688,6.04686 z M 409.62197,117.21219 c -3.33952,-2e-4 -6.04664,-2.70736 -6.04687,-6.04688 -8.7e-4,-3.34027 2.7066,-6.04862 6.04687,-6.04882 3.34104,-8.8e-4 6.0497,2.70778 6.04883,6.04882 -2e-4,3.34028 -2.70855,6.04776 -6.04883,6.04688 z m -120.95702,-0.01 c -3.33952,-2e-4 -6.04668,-2.70735 -6.04688,-6.04687 2.1e-4,-3.33951 2.70736,-6.04668 6.04688,-6.04688 3.33951,2.1e-4 6.04667,2.70737 6.04687,6.04688 -2e-4,3.33951 -2.70736,6.04666 -6.04687,6.04687 z M 401.67276,48.038167 h -9.44728 v -32.12695 h 9.44728 z m -18.8965,0 h -9.44921 v -32.12695 h 9.44921 z"
     id="path4909-7"
     inkscape:connector-curvature="0"
     sodipodi:nodetypes="cccccccccccccsccssscccccccccccccccccccccccccccccccccccccccccccccccscac" />
  <path
     style="opacity:1;fill:#ffff00;fill-opacity:0.27054796;stroke:#ff0000;stroke-width:0.75590551;stroke-linecap:square;stroke-linejoin:miter;stroke-miterlimit:4;stroke-dasharray:none;stroke-opacity:1"
     d="m 243.40296,371.02726 h 21.16406 v 34.09765 l 3.40235,3.69727 h 49.13281 l 4.15821,-3.69727 v -32.125 l 18.89841,-18.89842 89.19532,-0.83789 c 2.76159,0.0313 5.66991,-2.94226 5.66991,-4.83203 v -87.80661 c 0,-2.13585 -3.07846,-4.79101 -5.66991,-4.79101 h -9.82627 l -0.42383,-79.45313 c -0.0279,-5.23457 -4.21456,-9.44922 -9.44921,-9.44922 h -40.96094 c -5.23464,0 -6.57877,5.20203 -9.63867,9.44922 v 79.37008 h -94.48818 v 51.781 h 12.24219 v -3.78125 h 13.22656 v 3.78125 h 16.38672 v 13.60547 h -16.38672 v 3.7793 h -13.22656 v -3.7793 h -12.24219 v 13.68874 H 243.40296 Z M 366.89505,209.64059 v -32.125 h 9.44727 v 32.125 z m -90.70889,184.0644 c -8.8e-4,-3.34028 2.7066,-6.04863 6.04688,-6.04883 3.34027,2.1e-4 6.04775,2.70856 6.04687,6.04883 -2e-4,3.33951 -2.70736,6.04667 -6.04687,6.04688 -3.33952,-2e-4 -6.04668,-2.70736 -6.04688,-6.04688 z m 0,-120.94526 c 2e-4,-3.33952 2.70736,-6.04668 6.04688,-6.04688 3.33951,2.1e-4 6.04667,2.70737 6.04687,6.04688 -2.1e-4,3.33951 -2.70736,6.04666 -6.04687,6.04687 -3.33951,-2e-4 -6.04667,-2.70736 -6.04688,-6.04687 z m 109.60537,-63.11914 v -32.125 h 9.44923 v 32.125 z M 366.61388,324.8105 c 0,-3.66425 2.95098,-6.61327 6.61523,-6.61327 h 26.45703 c 3.66426,0 6.61329,2.94902 6.61329,6.61327 0,3.66425 -2.94903,6.61328 -6.61329,6.61328 h -26.45703 c -3.66425,0 -6.61523,-2.94903 -6.61523,-6.61328 z m 0,-41.57421 c 0,-3.66425 2.95098,-6.61523 6.61523,-6.61523 h 26.45703 c 3.66426,0 6.61329,2.95098 6.61329,6.61523 0,3.66425 -2.94903,6.61328 -6.61329,6.61328 h -26.45703 c -3.66425,0 -6.61523,-2.94903 -6.61523,-6.61328 z"
     id="rect3902-6"
     inkscape:connector-curvature="0"
     sodipodi:nodetypes="cccccccccsssccssscccccccccccccccccccccccccccccccccccccssssssssssssss" />
</svg>
