<?xml version="1.0" encoding="UTF-8" standalone="no"?>
<!-- Created with Inkscape (http://www.inkscape.org/) -->

<svg
   xmlns:dc="http://purl.org/dc/elements/1.1/"
   xmlns:cc="http://creativecommons.org/ns#"
   xmlns:rdf="http://www.w3.org/1999/02/22-rdf-syntax-ns#"
   xmlns:svg="http://www.w3.org/2000/svg"
   xmlns="http://www.w3.org/2000/svg"
   xmlns:sodipodi="http://sodipodi.sourceforge.net/DTD/sodipodi-0.dtd"
   xmlns:inkscape="http://www.inkscape.org/namespaces/inkscape"
   version="1.1"
   id="svg2"
   width="400mm"
   height="300mm"
   viewBox="0 0 1511.811 1133.8582"
   sodipodi:docname="head+23mm.svg"
   inkscape:version="0.92.1 unknown">
  <metadata
     id="metadata8">
    <rdf:RDF>
      <cc:Work
         rdf:about="">
        <dc:format>image/svg+xml</dc:format>
        <dc:type
           rdf:resource="http://purl.org/dc/dcmitype/StillImage" />
        <dc:title />
        <cc:license
           rdf:resource="http://creativecommons.org/licenses/by-nc-sa/4.0/" />
        <dc:creator>
          <cc:Agent>
            <dc:title>Jürgen Weigert &lt;juergen@fabmail.org&gt;</dc:title>
          </cc:Agent>
        </dc:creator>
        <dc:source>own scans and measurements</dc:source>
      </cc:Work>
      <cc:License
         rdf:about="http://creativecommons.org/licenses/by-nc-sa/4.0/">
        <cc:permits
           rdf:resource="http://creativecommons.org/ns#Reproduction" />
        <cc:permits
           rdf:resource="http://creativecommons.org/ns#Distribution" />
        <cc:requires
           rdf:resource="http://creativecommons.org/ns#Notice" />
        <cc:requires
           rdf:resource="http://creativecommons.org/ns#Attribution" />
        <cc:prohibits
           rdf:resource="http://creativecommons.org/ns#CommercialUse" />
        <cc:permits
           rdf:resource="http://creativecommons.org/ns#DerivativeWorks" />
        <cc:requires
           rdf:resource="http://creativecommons.org/ns#ShareAlike" />
      </cc:License>
    </rdf:RDF>
  </metadata>
  <defs
     id="defs6">
    <clipPath
       id="clipPath29"
       clipPathUnits="userSpaceOnUse">
      <rect
         y="21.337626"
         x="8.297966"
         height="387.63358"
         width="482.46753"
         id="rect31"
         style="opacity:1;fill:#ffff00;fill-opacity:0.53082192;stroke:#0000ff;stroke-width:0.75590551;stroke-linecap:square;stroke-linejoin:miter;stroke-miterlimit:4;stroke-dasharray:none;stroke-opacity:1" />
    </clipPath>
    <clipPath
       id="clipPath29-1"
       clipPathUnits="userSpaceOnUse">
      <rect
         y="21.337626"
         x="8.297966"
         height="387.63358"
         width="482.46753"
         id="rect31-2"
         style="opacity:1;fill:#ffff00;fill-opacity:0.53082192;stroke:#0000ff;stroke-width:0.75590551;stroke-linecap:square;stroke-linejoin:miter;stroke-miterlimit:4;stroke-dasharray:none;stroke-opacity:1" />
    </clipPath>
    <clipPath
       clipPathUnits="userSpaceOnUse"
       id="clipPath29-5">
      <rect
         style="opacity:1;fill:#ffff00;fill-opacity:0.53082192;stroke:#0000ff;stroke-width:0.75590551;stroke-linecap:square;stroke-linejoin:miter;stroke-miterlimit:4;stroke-dasharray:none;stroke-opacity:1"
         id="rect31-3"
         width="482.46753"
         height="387.63358"
         x="8.297966"
         y="21.337626" />
    </clipPath>
    <clipPath
       id="clipPath29-6"
       clipPathUnits="userSpaceOnUse">
      <rect
         y="21.337626"
         x="8.297966"
         height="387.63358"
         width="482.46753"
         id="rect31-26"
         style="opacity:1;fill:#ffff00;fill-opacity:0.53082192;stroke:#0000ff;stroke-width:0.75590551;stroke-linecap:square;stroke-linejoin:miter;stroke-miterlimit:4;stroke-dasharray:none;stroke-opacity:1" />
    </clipPath>
    <clipPath
       clipPathUnits="userSpaceOnUse"
       id="clipPath29-5-1">
      <rect
         style="opacity:1;fill:#ffff00;fill-opacity:0.53082192;stroke:#0000ff;stroke-width:0.75590551;stroke-linecap:square;stroke-linejoin:miter;stroke-miterlimit:4;stroke-dasharray:none;stroke-opacity:1"
         id="rect31-3-8"
         width="482.46753"
         height="387.63358"
         x="8.297966"
         y="21.337626" />
    </clipPath>
    <clipPath
       id="clipPath29-7"
       clipPathUnits="userSpaceOnUse">
      <rect
         y="21.337626"
         x="8.297966"
         height="387.63358"
         width="482.46753"
         id="rect31-5"
         style="opacity:1;fill:#ffff00;fill-opacity:0.53082192;stroke:#0000ff;stroke-width:0.75590551;stroke-linecap:square;stroke-linejoin:miter;stroke-miterlimit:4;stroke-dasharray:none;stroke-opacity:1" />
    </clipPath>
    <clipPath
       id="clipPath29-4"
       clipPathUnits="userSpaceOnUse">
      <rect
         y="21.337626"
         x="8.297966"
         height="387.63358"
         width="482.46753"
         id="rect31-7"
         style="opacity:1;fill:#ffff00;fill-opacity:0.53082192;stroke:#0000ff;stroke-width:0.75590551;stroke-linecap:square;stroke-linejoin:miter;stroke-miterlimit:4;stroke-dasharray:none;stroke-opacity:1" />
    </clipPath>
    <clipPath
       clipPathUnits="userSpaceOnUse"
       id="clipPath29-5-8">
      <rect
         style="opacity:1;fill:#ffff00;fill-opacity:0.53082192;stroke:#0000ff;stroke-width:0.75590551;stroke-linecap:square;stroke-linejoin:miter;stroke-miterlimit:4;stroke-dasharray:none;stroke-opacity:1"
         id="rect31-3-4"
         width="482.46753"
         height="387.63358"
         x="8.297966"
         y="21.337626" />
    </clipPath>
  </defs>
  <sodipodi:namedview
     pagecolor="#ffffff"
     bordercolor="#666666"
     borderopacity="1"
     objecttolerance="10"
     gridtolerance="10"
     guidetolerance="10"
     inkscape:pageopacity="0"
     inkscape:pageshadow="2"
     inkscape:window-width="1600"
     inkscape:window-height="843"
     id="namedview4"
     showgrid="false"
     units="mm"
     inkscape:document-units="mm"
     inkscape:snap-global="true"
     inkscape:zoom="0.90701604"
     inkscape:cx="124.72364"
     inkscape:cy="952.43931"
     inkscape:window-x="0"
     inkscape:window-y="0"
     inkscape:window-maximized="1"
     inkscape:current-layer="svg2"
     inkscape:snap-object-midpoints="true"
     inkscape:snap-bbox="true"
     inkscape:snap-midpoints="true"
     showguides="true"
     inkscape:guide-bbox="true"
     inkscape:bbox-nodes="true">
    <inkscape:grid
       type="xygrid"
       id="grid12"
       spacingx="3.7795275"
       spacingy="3.7795275"
       enabled="true"
       visible="true"
       snapvisiblegridlinesonly="false" />
    <inkscape:grid
       type="xygrid"
       id="grid838"
       visible="false"
       snapvisiblegridlinesonly="false" />
    <sodipodi:guide
       position="365.48915,1086.7187"
       orientation="0,1"
       id="guide4544"
       inkscape:locked="false" />
    <sodipodi:guide
       position="425.53798,1037.8218"
       orientation="1,0"
       id="guide4546"
       inkscape:locked="false" />
  </sodipodi:namedview>
  <path
     style="opacity:1;fill:#ffff00;fill-opacity:0.27054796;stroke:#ff0000;stroke-width:0.75590551;stroke-linecap:square;stroke-linejoin:miter;stroke-miterlimit:4;stroke-dasharray:none;stroke-dashoffset:0;stroke-opacity:1"
     d="m 30.236328,360.94496 c -10.46929,0 -18.898437,8.42915 -18.898437,18.89844 v 136.0625 h 34.96289 v -13.22852 h -4.724609 v -11.33984 h 4.724609 v -17.00781 h 13.228516 v 17.00781 h 4.724609 v 11.33984 h -4.724609 v 13.22852 h 27.400391 v 30.23678 H 162.51953 V 515.9059 h 27.4043 v -13.22852 h -4.72461 v -11.33984 h 4.72461 v -17.00781 h 13.22851 v 17.00781 h 4.72461 v 11.33984 h -4.72461 v 13.22852 h 34.95704 V 379.8434 c 0,-10.46929 -8.42719,-18.89844 -18.89649,-18.89844 h -34.96094 v 26.45703 h 4.72461 v 11.33985 h -4.72461 v 17.00781 h -13.22851 v -17.00781 h -4.72461 v -11.33985 h 4.72461 v -26.45703 h -39.68555 v 22.67774 h 4.72461 v 11.33984 h -4.72461 v 7.41602 c 14.86433,3.12735 25.50699,16.23798 25.51172,31.42773 -0.0148,8.08654 -3.0787,15.87005 -8.58008,21.79687 0.0489,0.60686 0.0743,1.2154 0.0762,1.82422 -5.3e-4,13.04534 -10.57574,23.62058 -23.62109,23.6211 -13.04611,5.5e-4 -23.62252,-10.57499 -23.62305,-23.6211 0.007,-0.59922 0.0371,-1.19797 0.0898,-1.79492 -5.513232,-5.93215 -8.582604,-13.72766 -8.593754,-21.82617 0.01765,-15.17949 10.657404,-28.27516 25.511724,-31.40039 v -7.44336 h -4.72461 V 383.6227 h 4.72461 V 360.94496 H 78.423828 v 26.45703 h 4.72461 v 11.33985 h -4.72461 v 17.00781 H 65.195312 v -17.00781 h -4.724609 v -11.33985 h 4.724609 v -26.45703 z m -3.779297,37.79492 H 49.134766 V 440.3141 H 26.457031 Z m 173.857419,0 h 22.67774 V 440.3141 H 200.31445 Z M 37.794922,451.65199 c 3.13155,-3.5e-4 5.670258,2.53838 5.669922,5.66992 3.31e-4,3.13155 -2.538376,5.67029 -5.669922,5.66993 -3.130781,-7.2e-4 -5.6683,-2.53914 -5.667969,-5.66993 -3.36e-4,-3.13077 2.537184,-5.66919 5.667969,-5.66992 z m 173.859378,10e-4 c 3.13078,7.3e-4 5.66831,2.53915 5.66797,5.66992 3.3e-4,3.13079 -2.53719,5.6692 -5.66797,5.66992 -3.13154,3.5e-4 -5.67026,-2.53837 -5.66992,-5.66992 -3.5e-4,-3.13153 2.53837,-5.67026 5.66992,-5.66992 z"
     id="rect4707"
     inkscape:connector-curvature="0"
     sodipodi:nodetypes="ssccccccccccccccccccccccccccccccsscccccccccccccccccccccccccccccccccccccccccccscccccccccccccccccccc" />
  <path
     style="opacity:1;fill:#ffff00;fill-opacity:0.27054796;stroke:#ff0000;stroke-width:0.75590551;stroke-linecap:square;stroke-linejoin:miter;stroke-miterlimit:4;stroke-dasharray:none;stroke-opacity:1"
     d="m 363.78711,5.328125 c -5.23464,0 -9.63672,4.2145676 -9.63672,9.449219 v 32.361328 l -12.69531,16.476562 h -10.40625 v -0.002 H 282.52148 V 93.851562 H 271 v 52.076168 h 12.24023 v -3.78125 h 13.22657 v 3.78125 h 16.38672 V 159.5332 H 296.4668 v 3.7793 h -13.22657 v -3.7793 H 271 v 13.68946 h -21.16602 v 36.20117 H 271 v 21.76758 c -0.0231,0.30295 -7.3e-4,0.56931 -0.008,0.87304 5.2e-4,9.41774 7.59787,17.08932 17.01562,17.08985 6.04097,-0.007 14.92329,-0.13866 19.38532,-9.95012 l 25.06781,-61.07723 5.99023,-46.11328 25.98633,-17.375 h 33.75805 c 1.61926,7.09639 7.92628,12.13311 15.20507,12.14258 7.28098,-0.007 13.59119,-5.04405 15.21094,-12.14258 h 6.58375 l 1.67969,-12.93164 c 0.0253,-0.19466 0.0371,-0.38636 0.0371,-0.57617 -5e-4,-2.847104 -2.76253,-5.093751 -5.70703,-5.093751 h -5.66797 V 63.615234 L 417.97852,47.138672 V 14.777344 c 0.0255,-5.2345914 -4.21458,-9.449219 -9.44922,-9.449219 z m -1.79883,10.583984 h 9.44922 v 32.126953 h -9.44922 z m 18.89844,0 h 9.44726 v 32.126953 h -9.44726 z m 18.89648,0 h 9.44922 V 48.039062 H 399.7832 Z M 292.44359,105.10938 c 3.33951,2.1e-4 6.04668,2.70736 6.04688,6.04687 -2e-4,3.33951 -2.70737,6.04666 -6.04688,6.04687 -3.33952,-2e-4 -6.04667,-2.70735 -6.04687,-6.04687 2.1e-4,-3.33951 2.70735,-6.04667 6.04687,-6.04687 z m 120.95703,0.008 c 3.34104,-8.8e-4 6.0497,2.70779 6.04883,6.04883 -2e-4,3.34028 -2.70855,6.04775 -6.04883,6.04687 -3.33952,-2e-4 -6.04664,-2.70735 -6.04687,-6.04687 -8.7e-4,-3.34027 2.7066,-6.04863 6.04687,-6.04883 z M 292.42797,226.00195 c 3.33952,2e-4 6.04667,2.70737 6.04687,6.04688 -2.1e-4,3.33951 -2.70736,6.04667 -6.04687,6.04687 -3.33951,-2e-4 -6.04668,-2.70736 -6.04688,-6.04687 2e-4,-3.33951 2.70737,-6.04668 6.04688,-6.04688 z"
     id="path4909-7"
     inkscape:connector-curvature="0"
     sodipodi:nodetypes="ssccccccccccccccccccccccccccccccccccccsccccsscccccccccccccccccccccccccccccc" />
  <path
     style="opacity:1;fill:#ffff00;fill-opacity:0.27054796;stroke:#ff0000;stroke-width:0.75590551;stroke-linecap:square;stroke-linejoin:miter;stroke-miterlimit:4;stroke-dasharray:none;stroke-opacity:1"
     d="M 361.13477 136.69531 C 355.90008 136.69531 351.45292 140.44171 351.49609 146.14453 L 351.49609 225.51367 L 347.7168 225.51367 L 347.7168 255.75 L 268.3457 255.75 L 268.3457 277.29492 L 280.58789 277.29492 L 280.58789 273.51367 L 293.81445 273.51367 L 293.81445 277.29492 L 310.20117 277.29492 L 310.20117 290.90039 L 293.81445 290.90039 L 293.81445 294.67969 L 280.58789 294.67969 L 280.58789 290.90039 L 268.3457 290.90039 L 268.3457 304.58984 L 247.18164 304.58984 L 247.18164 340.79102 L 268.3457 340.79102 L 268.3457 374.88867 L 271.74805 378.58594 L 320.88086 378.58594 L 325.03906 374.88867 L 325.03906 342.76367 L 343.9375 323.86523 L 433.13281 323.02734 C 435.8944 323.05864 438.80273 320.08508 438.80273 318.19531 L 438.80273 230.38867 C 438.80273 228.25282 435.72426 225.59766 433.13281 225.59766 L 415.74805 225.59766 L 415.32422 146.14453 C 415.29632 140.90996 411.10965 136.69531 405.875 136.69531 L 361.13477 136.69531 z M 359.33594 147.2793 L 368.7832 147.2793 L 368.7832 179.4043 L 359.33594 179.4043 L 359.33594 147.2793 z M 378.23242 147.2793 L 387.68164 147.2793 L 387.68164 179.4043 L 378.23242 179.4043 L 378.23242 147.2793 z M 397.12891 147.2793 L 406.57812 147.2793 L 406.57812 179.4043 L 397.12891 179.4043 L 397.12891 147.2793 z M 377.00781 246.38477 L 403.46484 246.38477 C 407.1291 246.38477 410.07812 249.33575 410.07812 253 C 410.07812 256.66425 407.1291 259.61328 403.46484 259.61328 L 377.00781 259.61328 C 373.34356 259.61328 370.39258 256.66425 370.39258 253 C 370.39258 249.33575 373.34356 246.38477 377.00781 246.38477 z M 377.00781 287.96094 L 403.46484 287.96094 C 407.1291 287.96094 410.07812 290.90997 410.07812 294.57422 C 410.07812 298.23847 407.1291 301.1875 403.46484 301.1875 L 377.00781 301.1875 C 373.34356 301.1875 370.39258 298.23847 370.39258 294.57422 C 370.39258 290.90997 373.34356 287.96094 377.00781 287.96094 z M 286.01172 357.41992 C 289.35199 357.42013 292.05947 360.12848 292.05859 363.46875 C 292.05839 366.80826 289.35123 369.51541 286.01172 369.51562 C 282.6722 369.51542 279.96504 366.80827 279.96484 363.46875 C 279.96396 360.12847 282.67144 357.42012 286.01172 357.41992 z "
     id="rect3902-6" />
  <text
     xml:space="preserve"
     style="font-style:normal;font-weight:normal;font-size:74.66666412px;line-height:25px;font-family:sans-serif;letter-spacing:0px;word-spacing:0px;fill:#000000;fill-opacity:1;stroke:none;stroke-width:1px;stroke-linecap:butt;stroke-linejoin:miter;stroke-opacity:1"
     x="111.44947"
     y="214.78171"
     id="text4505"><tspan
       sodipodi:role="line"
       id="tspan4503"
       x="111.44947"
       y="246.67754" /></text>
  <g
     id="g4615">
    <path
       id="path4592"
       d="M 98.267578 5.6699219 C 81.516705 5.6699219 68.03125 19.155381 68.03125 35.90625 L 68.03125 64.251953 L 45.996094 64.251953 C 24.702607 64.251953 7.5585937 81.110238 7.5585938 102.04883 L 7.5585938 132.2832 L 7.5585938 166.30078 L 7.5585938 308.03516 C 7.5585938 314.31673 12.703751 319.37305 19.091797 319.37305 L 64.253906 319.37305 L 64.253906 345.83008 C 64.253906 352.11165 69.310222 357.16797 75.591797 357.16797 L 173.85938 357.16797 C 180.14095 357.16797 185.19727 352.11165 185.19727 345.83008 L 185.19727 319.37305 L 230.35938 319.37305 C 236.74742 319.37305 241.88863 314.31673 241.88867 308.03516 L 241.88867 166.30078 L 241.88867 132.2832 L 241.88867 102.04883 C 241.88867 81.110238 224.7466 64.251953 203.45312 64.251953 L 181.41602 64.251953 L 181.41602 35.90625 C 181.41602 19.155381 167.93055 5.6699219 151.17969 5.6699219 L 98.267578 5.6699219 z "
       style="opacity:1;fill:#ffff00;fill-opacity:0.27054796;stroke:#ff0000;stroke-width:0.75590551;stroke-linecap:square;stroke-linejoin:miter;stroke-miterlimit:4;stroke-dasharray:none;stroke-opacity:1" />
    <path
       id="path4590"
       d="m 158.71094,20.091797 c 3.34027,2.01e-4 6.04775,2.70855 6.04687,6.048828 -2e-4,3.33952 -2.70736,6.046673 -6.04687,6.046875 -3.33952,-2.07e-4 -6.04668,-2.707359 -6.04688,-6.046875 -8.7e-4,-3.340274 2.7066,-6.048621 6.04688,-6.048828 z"
       style="opacity:1;fill:#ffff00;fill-opacity:0.27054796;stroke:#ff0000;stroke-width:0.75590551;stroke-linecap:square;stroke-linejoin:miter;stroke-miterlimit:4;stroke-dasharray:none;stroke-opacity:1" />
    <path
       id="path4588"
       d="m 90.679688,20.093797 c 3.339516,2e-4 6.046672,2.707355 6.046874,6.046875 -2.07e-4,3.339513 -2.707362,6.046675 -6.046874,6.046875 -3.339513,-2.1e-4 -6.046664,-2.707362 -6.046876,-6.046875 2.07e-4,-3.33951 2.707359,-6.046665 6.046876,-6.046875 z"
       style="opacity:1;fill:#ffff00;fill-opacity:0.27054796;stroke:#ff0000;stroke-width:0.75590551;stroke-linecap:square;stroke-linejoin:miter;stroke-miterlimit:4;stroke-dasharray:none;stroke-opacity:1" />
    <path
       id="path4586"
       d="m 90.728518,71.40825 c 4.17439,2.55e-4 7.558338,3.384204 7.558593,7.558594 8.24e-4,4.175153 -3.38344,7.560292 -7.558593,7.560547 -4.175916,8.24e-4 -7.561371,-3.384631 -7.560547,-7.560547 2.55e-4,-4.175153 3.385394,-7.559418 7.560547,-7.558594 z"
       style="opacity:1;fill:#ffff00;fill-opacity:0.27054796;stroke:#ff0000;stroke-width:0.75590551;stroke-linecap:square;stroke-linejoin:miter;stroke-miterlimit:4;stroke-dasharray:none;stroke-opacity:1" />
    <path
       id="path4584"
       d="m 158.75977,71.40825 c 4.17439,2.57e-4 7.55834,3.384205 7.55859,7.558594 8.2e-4,4.175152 -3.38344,7.56029 -7.55859,7.560547 -4.17592,8.26e-4 -7.56137,-3.38463 -7.56055,-7.560547 2.5e-4,-4.175155 3.3854,-7.559419 7.56055,-7.558594 z"
       style="opacity:1;fill:#ffff00;fill-opacity:0.27054796;stroke:#ff0000;stroke-width:0.75590551;stroke-linecap:square;stroke-linejoin:miter;stroke-miterlimit:4;stroke-dasharray:none;stroke-opacity:1" />
    <path
       id="path4582"
       d="m 86.929688,101.42038 h 75.589842 v 22.67773 H 86.929688 Z"
       style="opacity:1;fill:#ffff00;fill-opacity:0.27054796;stroke:#ff0000;stroke-width:0.75590551;stroke-linecap:square;stroke-linejoin:miter;stroke-miterlimit:4;stroke-dasharray:none;stroke-opacity:1" />
    <path
       id="path4580"
       d="m 52.914062,105.82859 c 4.174395,2.6e-4 7.558337,3.38418 7.558594,7.55858 -2.57e-4,4.17441 -3.384199,7.55834 -7.558594,7.5586 -4.174387,-2.6e-4 -7.558336,-3.38419 -7.558593,-7.5586 2.57e-4,-4.1744 3.384206,-7.55832 7.558593,-7.55858 z"
       style="opacity:1;fill:#ffff00;fill-opacity:0.27054796;stroke:#ff0000;stroke-width:0.75590551;stroke-linecap:square;stroke-linejoin:miter;stroke-miterlimit:4;stroke-dasharray:none;stroke-opacity:1" />
    <path
       id="path4578"
       d="m 196.53516,105.82859 c 4.17439,2.5e-4 7.55833,3.38418 7.55859,7.55858 -2.6e-4,4.17441 -3.3842,7.55835 -7.55859,7.5586 -4.17439,-2.6e-4 -7.55834,-3.38419 -7.5586,-7.5586 2.6e-4,-4.1744 3.38421,-7.55832 7.5586,-7.55858 z"
       style="opacity:1;fill:#ffff00;fill-opacity:0.27054796;stroke:#ff0000;stroke-width:0.75590551;stroke-linecap:square;stroke-linejoin:miter;stroke-miterlimit:4;stroke-dasharray:none;stroke-opacity:1" />
    <path
       id="path4576"
       d="m 26.457031,134.09082 h 22.677735 v 76.39408 67.22702 2.69531 H 26.457031 v -2.69531 -67.22702 z"
       style="opacity:1;fill:#ffff00;fill-opacity:0.27054796;stroke:#ff0000;stroke-width:0.75590551;stroke-linecap:square;stroke-linejoin:miter;stroke-miterlimit:4;stroke-dasharray:none;stroke-opacity:1"
       inkscape:connector-curvature="0"
       sodipodi:nodetypes="ccccccccc" />
    <path
       id="path4574"
       d="m 206.08008,139.21552 c 3.13079,-3.6e-4 5.66918,2.53717 5.66992,5.66796 3.5e-4,3.13156 -2.53836,5.67028 -5.66992,5.66993 -3.13156,3.5e-4 -5.67027,-2.53837 -5.66992,-5.66993 7.4e-4,-3.13079 2.53913,-5.66832 5.66992,-5.66796 z"
       style="opacity:1;fill:#ffff00;fill-opacity:0.27054796;stroke:#ff0000;stroke-width:0.75590551;stroke-linecap:square;stroke-linejoin:miter;stroke-miterlimit:4;stroke-dasharray:none;stroke-opacity:1" />
    <path
       id="path4572"
       d="m 90.728516,162.11719 c 4.174389,2.6e-4 7.558336,3.3842 7.558593,7.55859 -2.52e-4,4.17439 -3.3842,7.55834 -7.558593,7.5586 -4.175156,8.2e-4 -7.560295,-3.38344 -7.560547,-7.5586 2.57e-4,-4.17515 3.385395,-7.55941 7.560547,-7.55859 z"
       style="opacity:1;fill:#ffff00;fill-opacity:0.27054796;stroke:#ff0000;stroke-width:0.75590551;stroke-linecap:square;stroke-linejoin:miter;stroke-miterlimit:4;stroke-dasharray:none;stroke-opacity:1" />
    <path
       id="path4570"
       d="m 158.75977,162.11719 c 4.17439,2.6e-4 7.55833,3.3842 7.55859,7.55859 -2.5e-4,4.17439 -3.3842,7.55834 -7.55859,7.5586 -4.17516,8.3e-4 -7.5603,-3.38344 -7.56055,-7.5586 2.6e-4,-4.17515 3.3854,-7.55942 7.56055,-7.55859 z"
       style="opacity:1;fill:#ffff00;fill-opacity:0.27054796;stroke:#ff0000;stroke-width:0.75590551;stroke-linecap:square;stroke-linejoin:miter;stroke-miterlimit:4;stroke-dasharray:none;stroke-opacity:1" />
    <path
       id="path4568"
       d="m 206.08008,173.23114 c 3.13079,-3.5e-4 5.66919,2.53718 5.66992,5.66797 3.5e-4,3.13155 -2.53837,5.67027 -5.66992,5.66992 -3.13155,3.5e-4 -5.67027,-2.53837 -5.66992,-5.66992 7.3e-4,-3.13079 2.53913,-5.66832 5.66992,-5.66797 z"
       style="opacity:1;fill:#ffff00;fill-opacity:0.27054796;stroke:#ff0000;stroke-width:0.75590551;stroke-linecap:square;stroke-linejoin:miter;stroke-miterlimit:4;stroke-dasharray:none;stroke-opacity:1" />
    <path
       id="path4566"
       d="m 200.31445,205.86409 h 22.67774 v 64.35566 2.69531 h -22.67774 v -2.69531 z"
       style="opacity:1;fill:#ffff00;fill-opacity:0.27054796;stroke:#ff0000;stroke-width:0.75590551;stroke-linecap:square;stroke-linejoin:miter;stroke-miterlimit:4;stroke-dasharray:none;stroke-opacity:1"
       inkscape:connector-curvature="0"
       sodipodi:nodetypes="ccccccc" />
    <path
       id="path4564"
       d="m 90.728516,241.48633 c 4.175154,2.6e-4 7.559418,3.3854 7.558593,7.56055 -2.57e-4,4.17439 -3.384204,7.55833 -7.558593,7.55859 -4.175152,8.2e-4 -7.56029,-3.38344 -7.560547,-7.55859 -8.26e-4,-4.17592 3.38463,-7.56137 7.560547,-7.56055 z"
       style="opacity:1;fill:#ffff00;fill-opacity:0.27054796;stroke:#ff0000;stroke-width:0.75590551;stroke-linecap:square;stroke-linejoin:miter;stroke-miterlimit:4;stroke-dasharray:none;stroke-opacity:1" />
    <path
       id="path4562"
       d="m 158.75977,241.48633 c 4.17515,2.6e-4 7.55942,3.3854 7.55859,7.56055 -2.6e-4,4.17439 -3.3842,7.55833 -7.55859,7.55859 -4.17515,8.3e-4 -7.56029,-3.38344 -7.56055,-7.55859 -8.3e-4,-4.17592 3.38463,-7.56138 7.56055,-7.56055 z"
       style="opacity:1;fill:#ffff00;fill-opacity:0.27054796;stroke:#ff0000;stroke-width:0.75590551;stroke-linecap:square;stroke-linejoin:miter;stroke-miterlimit:4;stroke-dasharray:none;stroke-opacity:1" />
    <path
       id="path4560"
       d="m 90.728516,332.19531 c 4.175154,2.6e-4 7.559418,3.3854 7.558593,7.56055 -2.57e-4,4.17439 -3.384204,7.55833 -7.558593,7.55859 -4.175152,8.2e-4 -7.56029,-3.38344 -7.560547,-7.55859 -8.26e-4,-4.17592 3.38463,-7.56137 7.560547,-7.56055 z"
       style="opacity:1;fill:#ffff00;fill-opacity:0.27054796;stroke:#ff0000;stroke-width:0.75590551;stroke-linecap:square;stroke-linejoin:miter;stroke-miterlimit:4;stroke-dasharray:none;stroke-opacity:1" />
    <path
       id="rect5079"
       d="m 158.75977,332.19531 c 4.17515,2.6e-4 7.55942,3.3854 7.55859,7.56055 -2.6e-4,4.17439 -3.3842,7.55833 -7.55859,7.55859 -4.17515,8.3e-4 -7.56029,-3.38344 -7.56055,-7.55859 -8.3e-4,-4.17592 3.38463,-7.56138 7.56055,-7.56055 z"
       style="opacity:1;fill:#ffff00;fill-opacity:0.27054796;stroke:#ff0000;stroke-width:0.75590551;stroke-linecap:square;stroke-linejoin:miter;stroke-miterlimit:4;stroke-dasharray:none;stroke-opacity:1" />
    <text
       id="text5216"
       y="218.40106"
       x="77.133865"
       style="font-style:normal;font-weight:normal;font-size:21.33333397px;line-height:25px;font-family:sans-serif;letter-spacing:0px;word-spacing:0px;fill:#0000ff;fill-opacity:1;stroke:none;stroke-width:1px;stroke-linecap:butt;stroke-linejoin:miter;stroke-opacity:1;"
       xml:space="preserve"><tspan
         y="218.40106"
         x="77.133865"
         id="tspan5214"
         sodipodi:role="line">8mm</tspan></text>
  </g>
  <text
     xml:space="preserve"
     style="font-style:normal;font-weight:normal;font-size:21.33333397px;line-height:25px;font-family:sans-serif;letter-spacing:0px;word-spacing:0px;fill:#0000ff;fill-opacity:1;stroke:none;stroke-width:1px;stroke-linecap:butt;stroke-linejoin:miter;stroke-opacity:1"
     x="336.44574"
     y="95.088379"
     id="text5220"><tspan
       sodipodi:role="line"
       id="tspan5218"
       x="336.44574"
       y="95.088379">6mm      </tspan></text>
  <flowRoot
     xml:space="preserve"
     id="flowRoot5222"
     style="fill:black;stroke:none;stroke-opacity:1;stroke-width:1px;stroke-linejoin:miter;stroke-linecap:butt;fill-opacity:1;font-family:sans-serif;font-style:normal;font-weight:normal;font-size:21.33333333px;line-height:25px;letter-spacing:0px;word-spacing:0px"><flowRegion
       id="flowRegion5224"><rect
         id="rect5226"
         width="17.09766"
         height="42.708981"
         x="368.69339"
         y="166.93164" /></flowRegion><flowPara
       id="flowPara5228" /></flowRoot>  <text
     xml:space="preserve"
     style="font-style:normal;font-weight:normal;font-size:21.33333397px;line-height:25px;font-family:sans-serif;letter-spacing:0px;word-spacing:0px;fill:#0000ff;fill-opacity:1;stroke:none;stroke-width:1px;stroke-linecap:butt;stroke-linejoin:miter;stroke-opacity:1"
     x="281.64011"
     y="317.61975"
     id="text5232"><tspan
       sodipodi:role="line"
       id="tspan5230"
       x="281.64011"
       y="317.61975">6mm</tspan></text>
  <text
     xml:space="preserve"
     style="font-style:normal;font-weight:normal;font-size:21.33333397px;line-height:25px;font-family:sans-serif;letter-spacing:0px;word-spacing:0px;fill:#0000ff;fill-opacity:1;stroke:none;stroke-width:1px;stroke-linecap:butt;stroke-linejoin:miter;stroke-opacity:1;"
     x="91.850189"
     y="498.51877"
     id="text5236"><tspan
       sodipodi:role="line"
       id="tspan5234"
       x="91.850189"
       y="498.51877">6mm</tspan></text>
  <g
     transform="matrix(3.7795274,0,0,3.7795274,164.67314,-78.48442)"
     id="g5516">
    <g
       transform="matrix(-0.2594952,0,0,0.2594952,100.10402,-133.77799)"
       id="g4815"
       style="stroke-width:1.0196079">
      <rect
         style="opacity:1;fill:#ffff00;fill-opacity:0.53082192;stroke:#ff0000;stroke-width:0.77072716;stroke-linecap:square;stroke-linejoin:miter;stroke-miterlimit:4;stroke-dasharray:none;stroke-opacity:1"
         id="rect4800"
         width="22.677166"
         height="24.566929"
         x="117.16535"
         y="986.75659" />
      <circle
         style="opacity:1;fill:#ffff00;fill-opacity:0.53082192;stroke:#ff0000;stroke-width:0.77072716;stroke-linecap:square;stroke-linejoin:miter;stroke-miterlimit:4;stroke-dasharray:none;stroke-opacity:1"
         id="path4804"
         cx="129.82675"
         cy="953.30786"
         r="6.0472445" />
      <path
         style="opacity:1;fill:#ffff00;fill-opacity:0.53082192;stroke:#ff0000;stroke-width:0.75590551;stroke-linecap:square;stroke-linejoin:miter;stroke-miterlimit:4;stroke-dasharray:none;stroke-opacity:1"
         d="m 276.40625,514.05859 v -33.13086 -7.36328 -58.90039 c 0,-4.07888 -3.32396,-7.36328 -7.45508,-7.36328 h -41.03906 c -4.13113,0 -7.45703,3.2844 -7.45703,7.36328 3.05043,48.71207 -50.17067,69.73909 -98.29102,80.54688 H 91.849609 c -4.131125,0 -7.457031,3.28437 -7.457031,7.36328 v 66.26172 c 0,4.0789 3.325906,7.36328 7.457031,7.36328 h 57.976561 c 14.54325,-15.37259 21.51194,-36.03805 36.50419,-46.70093 14.99225,-10.66288 25.94277,-14.85795 37.88049,-15.41529 z"
         transform="matrix(-1.0196078,0,0,1.0196078,385.76444,515.53166)"
         id="rect4794"
         inkscape:connector-curvature="0"
         sodipodi:nodetypes="cccsssccsssscccc" />
    </g>
    <rect
       transform="scale(-1,1)"
       style="opacity:1;fill:#ffff00;fill-opacity:0.53082192;stroke:#ff0000;stroke-width:0.2;stroke-linecap:square;stroke-linejoin:miter;stroke-miterlimit:4;stroke-dasharray:none;stroke-opacity:1"
       id="rect5439"
       width="2.5499983"
       height="9.8077049"
       x="-38.1194"
       y="136.34494"
       rx="1.4999992"
       ry="1.4999992" />
    <rect
       transform="scale(-1,1)"
       ry="1.4999992"
       rx="1.4999992"
       y="136.34492"
       x="-28.900169"
       height="9.8077049"
       width="2.5499983"
       id="rect5443"
       style="opacity:1;fill:#ffff00;fill-opacity:0.53082192;stroke:#ff0000;stroke-width:0.2;stroke-linecap:square;stroke-linejoin:miter;stroke-miterlimit:4;stroke-dasharray:none;stroke-opacity:1" />
  </g>
  <text
     xml:space="preserve"
     style="font-style:normal;font-weight:normal;font-size:21.33333397px;line-height:25px;font-family:sans-serif;letter-spacing:0px;word-spacing:0px;fill:#0000ff;fill-opacity:1;stroke:none;stroke-width:1px;stroke-linecap:butt;stroke-linejoin:miter;stroke-opacity:1"
     x="334.90948"
     y="427.1207"
     id="text5232-3"><tspan
       sodipodi:role="line"
       id="tspan5230-6"
       x="334.90948"
       y="427.1207">6mm</tspan></text>
</svg>
