<?xml version="1.0" encoding="UTF-8" standalone="no"?>
<!-- Created with Inkscape (http://www.inkscape.org/) -->

<svg
   xmlns:dc="http://purl.org/dc/elements/1.1/"
   xmlns:cc="http://creativecommons.org/ns#"
   xmlns:rdf="http://www.w3.org/1999/02/22-rdf-syntax-ns#"
   xmlns:svg="http://www.w3.org/2000/svg"
   xmlns="http://www.w3.org/2000/svg"
   xmlns:sodipodi="http://sodipodi.sourceforge.net/DTD/sodipodi-0.dtd"
   xmlns:inkscape="http://www.inkscape.org/namespaces/inkscape"
   version="1.1"
   id="svg2"
   width="400mm"
   height="300mm"
   viewBox="0 0 1511.811 1133.8582"
   sodipodi:docname="head+25mm.svg"
   inkscape:version="0.92.0 unknown">
  <metadata
     id="metadata8">
    <rdf:RDF>
      <cc:Work
         rdf:about="">
        <dc:format>image/svg+xml</dc:format>
        <dc:type
           rdf:resource="http://purl.org/dc/dcmitype/StillImage" />
        <dc:title />
        <cc:license
           rdf:resource="http://creativecommons.org/licenses/by-nc-sa/4.0/" />
        <dc:creator>
          <cc:Agent>
            <dc:title>Jürgen Weigert &lt;juergen@fabmail.org&gt;</dc:title>
          </cc:Agent>
        </dc:creator>
        <dc:source>own scans and measurements</dc:source>
      </cc:Work>
      <cc:License
         rdf:about="http://creativecommons.org/licenses/by-nc-sa/4.0/">
        <cc:permits
           rdf:resource="http://creativecommons.org/ns#Reproduction" />
        <cc:permits
           rdf:resource="http://creativecommons.org/ns#Distribution" />
        <cc:requires
           rdf:resource="http://creativecommons.org/ns#Notice" />
        <cc:requires
           rdf:resource="http://creativecommons.org/ns#Attribution" />
        <cc:prohibits
           rdf:resource="http://creativecommons.org/ns#CommercialUse" />
        <cc:permits
           rdf:resource="http://creativecommons.org/ns#DerivativeWorks" />
        <cc:requires
           rdf:resource="http://creativecommons.org/ns#ShareAlike" />
      </cc:License>
    </rdf:RDF>
  </metadata>
  <defs
     id="defs6">
    <clipPath
       id="clipPath29"
       clipPathUnits="userSpaceOnUse">
      <rect
         y="21.337626"
         x="8.297966"
         height="387.63358"
         width="482.46753"
         id="rect31"
         style="opacity:1;fill:#ffff00;fill-opacity:0.53082192;stroke:#0000ff;stroke-width:0.75590551;stroke-linecap:square;stroke-linejoin:miter;stroke-miterlimit:4;stroke-dasharray:none;stroke-opacity:1" />
    </clipPath>
    <clipPath
       id="clipPath29-1"
       clipPathUnits="userSpaceOnUse">
      <rect
         y="21.337626"
         x="8.297966"
         height="387.63358"
         width="482.46753"
         id="rect31-2"
         style="opacity:1;fill:#ffff00;fill-opacity:0.53082192;stroke:#0000ff;stroke-width:0.75590551;stroke-linecap:square;stroke-linejoin:miter;stroke-miterlimit:4;stroke-dasharray:none;stroke-opacity:1" />
    </clipPath>
    <clipPath
       clipPathUnits="userSpaceOnUse"
       id="clipPath29-5">
      <rect
         style="opacity:1;fill:#ffff00;fill-opacity:0.53082192;stroke:#0000ff;stroke-width:0.75590551;stroke-linecap:square;stroke-linejoin:miter;stroke-miterlimit:4;stroke-dasharray:none;stroke-opacity:1"
         id="rect31-3"
         width="482.46753"
         height="387.63358"
         x="8.297966"
         y="21.337626" />
    </clipPath>
    <clipPath
       id="clipPath29-6"
       clipPathUnits="userSpaceOnUse">
      <rect
         y="21.337626"
         x="8.297966"
         height="387.63358"
         width="482.46753"
         id="rect31-26"
         style="opacity:1;fill:#ffff00;fill-opacity:0.53082192;stroke:#0000ff;stroke-width:0.75590551;stroke-linecap:square;stroke-linejoin:miter;stroke-miterlimit:4;stroke-dasharray:none;stroke-opacity:1" />
    </clipPath>
    <clipPath
       clipPathUnits="userSpaceOnUse"
       id="clipPath29-5-1">
      <rect
         style="opacity:1;fill:#ffff00;fill-opacity:0.53082192;stroke:#0000ff;stroke-width:0.75590551;stroke-linecap:square;stroke-linejoin:miter;stroke-miterlimit:4;stroke-dasharray:none;stroke-opacity:1"
         id="rect31-3-8"
         width="482.46753"
         height="387.63358"
         x="8.297966"
         y="21.337626" />
    </clipPath>
    <clipPath
       id="clipPath29-7"
       clipPathUnits="userSpaceOnUse">
      <rect
         y="21.337626"
         x="8.297966"
         height="387.63358"
         width="482.46753"
         id="rect31-5"
         style="opacity:1;fill:#ffff00;fill-opacity:0.53082192;stroke:#0000ff;stroke-width:0.75590551;stroke-linecap:square;stroke-linejoin:miter;stroke-miterlimit:4;stroke-dasharray:none;stroke-opacity:1" />
    </clipPath>
    <clipPath
       id="clipPath29-4"
       clipPathUnits="userSpaceOnUse">
      <rect
         y="21.337626"
         x="8.297966"
         height="387.63358"
         width="482.46753"
         id="rect31-7"
         style="opacity:1;fill:#ffff00;fill-opacity:0.53082192;stroke:#0000ff;stroke-width:0.75590551;stroke-linecap:square;stroke-linejoin:miter;stroke-miterlimit:4;stroke-dasharray:none;stroke-opacity:1" />
    </clipPath>
    <clipPath
       clipPathUnits="userSpaceOnUse"
       id="clipPath29-5-8">
      <rect
         style="opacity:1;fill:#ffff00;fill-opacity:0.53082192;stroke:#0000ff;stroke-width:0.75590551;stroke-linecap:square;stroke-linejoin:miter;stroke-miterlimit:4;stroke-dasharray:none;stroke-opacity:1"
         id="rect31-3-4"
         width="482.46753"
         height="387.63358"
         x="8.297966"
         y="21.337626" />
    </clipPath>
  </defs>
  <sodipodi:namedview
     pagecolor="#ffffff"
     bordercolor="#666666"
     borderopacity="1"
     objecttolerance="10"
     gridtolerance="10"
     guidetolerance="10"
     inkscape:pageopacity="0"
     inkscape:pageshadow="2"
     inkscape:window-width="1280"
     inkscape:window-height="747"
     id="namedview4"
     showgrid="false"
     units="mm"
     inkscape:document-units="mm"
     inkscape:snap-global="true"
     inkscape:zoom="0.98530003"
     inkscape:cx="187.9793"
     inkscape:cy="892.44879"
     inkscape:window-x="0"
     inkscape:window-y="0"
     inkscape:window-maximized="1"
     inkscape:current-layer="svg2"
     inkscape:snap-object-midpoints="true"
     inkscape:snap-bbox="true"
     inkscape:snap-midpoints="true">
    <inkscape:grid
       type="xygrid"
       id="grid12"
       spacingx="3.7795275"
       spacingy="3.7795275"
       enabled="true"
       visible="true"
       snapvisiblegridlinesonly="false" />
    <inkscape:grid
       type="xygrid"
       id="grid838"
       visible="false"
       snapvisiblegridlinesonly="false" />
  </sodipodi:namedview>
  <path
     style="opacity:1;fill:#ffff00;fill-opacity:0.27054796;stroke:#ff0000;stroke-width:0.75590551;stroke-linecap:square;stroke-linejoin:miter;stroke-miterlimit:4;stroke-dasharray:none;stroke-opacity:1"
     d="M 98.267578 5.6699219 C 81.516707 5.6699219 68.03125 19.155383 68.03125 35.90625 L 68.03125 64.251953 L 49.775391 64.251953 C 28.481906 64.251953 11.337891 81.110244 11.337891 102.04883 L 11.337891 132.2832 L 11.337891 166.30078 L 11.337891 343.93945 C 11.337891 350.22102 16.483049 355.27734 22.871094 355.27734 L 226.58008 355.27734 C 232.96812 355.27734 238.10935 350.22102 238.10938 343.93945 L 238.10938 166.30078 L 238.10938 132.2832 L 238.10938 102.04883 C 238.10938 81.110244 220.9673 64.251953 199.67383 64.251953 L 181.41602 64.251953 L 181.41602 35.90625 C 181.41602 19.155383 167.93055 5.6699219 151.17969 5.6699219 L 98.267578 5.6699219 z M 158.71094 20.091797 C 162.05121 20.091998 164.75869 22.800347 164.75781 26.140625 C 164.75761 29.480145 162.05045 32.187298 158.71094 32.1875 C 155.37142 32.187293 152.66426 29.480141 152.66406 26.140625 C 152.66319 22.800351 155.37066 20.092004 158.71094 20.091797 z M 90.679688 20.09375 C 94.019204 20.09395 96.72636 22.801105 96.726562 26.140625 C 96.726355 29.480138 94.0192 32.1873 90.679688 32.1875 C 87.340176 32.18729 84.633023 29.480138 84.632812 26.140625 C 84.633018 22.801115 87.340172 20.09396 90.679688 20.09375 z M 90.708984 72.945312 C 94.049261 72.94552 96.756731 75.653869 96.755859 78.994141 C 96.755658 82.333653 94.048501 85.040809 90.708984 85.041016 C 87.369468 85.040815 84.66231 82.333657 84.662109 78.994141 C 84.661237 75.653865 87.368709 72.945514 90.708984 72.945312 z M 158.74023 72.945312 C 162.08051 72.945514 164.78798 75.653865 164.78711 78.994141 C 164.78691 82.333657 162.07975 85.040815 158.74023 85.041016 C 155.40072 85.040809 152.69356 82.333653 152.69336 78.994141 C 152.69249 75.653869 155.39996 72.94552 158.74023 72.945312 z M 86.929688 93.861328 L 162.51953 93.861328 L 162.51953 116.53906 L 86.929688 116.53906 L 86.929688 93.861328 z M 52.914062 98.269531 C 57.088456 98.269791 60.472399 101.65372 60.472656 105.82812 C 60.472399 110.00252 57.088456 113.38646 52.914062 113.38672 C 48.739675 113.38646 45.355726 110.00252 45.355469 105.82812 C 45.355726 101.65372 48.739675 98.269791 52.914062 98.269531 z M 196.53516 98.269531 C 200.70955 98.269781 204.09349 101.65372 204.09375 105.82812 C 204.09349 110.00252 200.70955 113.38647 196.53516 113.38672 C 192.36077 113.38646 188.97682 110.00252 188.97656 105.82812 C 188.97682 101.65372 192.36077 98.269791 196.53516 98.269531 z M 26.457031 127.70117 L 49.134766 127.70117 L 49.134766 211.6543 L 49.134766 271.32227 L 49.134766 274.01758 L 26.457031 274.01758 L 26.457031 271.32227 L 26.457031 211.6543 L 26.457031 127.70117 z M 206.08008 133.54688 A 5.6692916 5.6692916 0 0 1 211.75 139.21484 A 5.6692916 5.6692916 0 0 1 206.08008 144.88477 A 5.6692916 5.6692916 0 0 1 200.41016 139.21484 A 5.6692916 5.6692916 0 0 1 206.08008 133.54688 z M 90.708984 163.6543 C 94.048501 163.65451 96.755658 166.36166 96.755859 169.70117 C 96.756729 173.04144 94.049259 175.74979 90.708984 175.75 C 87.36871 175.7498 84.661239 173.04144 84.662109 169.70117 C 84.66231 166.36165 87.369468 163.6545 90.708984 163.6543 z M 158.74023 163.6543 C 162.07975 163.6545 164.78691 166.36165 164.78711 169.70117 C 164.78798 173.04144 162.0805 175.7498 158.74023 175.75 C 155.39996 175.74979 152.69249 173.04144 152.69336 169.70117 C 152.69356 166.36166 155.40072 163.65451 158.74023 163.6543 z M 206.08008 167.5625 A 5.6692916 5.6692916 0 0 1 211.75 173.23047 A 5.6692916 5.6692916 0 0 1 206.08008 178.90039 A 5.6692916 5.6692916 0 0 1 200.41016 173.23047 A 5.6692916 5.6692916 0 0 1 206.08008 167.5625 z M 200.31445 212.95117 L 222.99219 212.95117 L 222.99219 271.32227 L 222.99219 274.01758 L 200.31445 274.01758 L 200.31445 271.32227 L 200.31445 212.95117 z M 90.708984 243.02539 C 94.048501 243.02564 96.755657 245.73276 96.755859 249.07227 C 96.755652 252.41178 94.048497 255.11889 90.708984 255.11914 C 87.369472 255.1189 84.662316 252.41178 84.662109 249.07227 C 84.662311 245.73275 87.369468 243.02563 90.708984 243.02539 z M 158.74023 243.02539 C 162.07975 243.02563 164.78691 245.73275 164.78711 249.07227 C 164.7869 252.41178 162.07974 255.1189 158.74023 255.11914 C 155.40072 255.11889 152.69357 252.41178 152.69336 249.07227 C 152.69356 245.73276 155.40072 243.02564 158.74023 243.02539 z M 90.708984 333.73438 C 94.048497 333.73459 96.755652 336.44174 96.755859 339.78125 C 96.755657 343.12076 94.048501 345.82791 90.708984 345.82812 C 87.369468 345.82792 84.662311 343.12077 84.662109 339.78125 C 84.662316 336.44174 87.369472 333.73458 90.708984 333.73438 z M 158.74023 333.73438 C 162.07974 333.73458 164.7869 336.44174 164.78711 339.78125 C 164.78691 343.12077 162.07975 345.82792 158.74023 345.82812 C 155.40072 345.82791 152.69356 343.12076 152.69336 339.78125 C 152.69357 336.44174 155.40072 333.73459 158.74023 333.73438 z "
     id="rect5079" />
  <path
     style="opacity:1;fill:#ffff00;fill-opacity:0.27054796;stroke:#ff0000;stroke-width:0.75590551;stroke-linecap:square;stroke-linejoin:miter;stroke-miterlimit:4;stroke-dasharray:none;stroke-dashoffset:0;stroke-opacity:1"
     d="m 30.236328,357.16543 c -10.46929,0 -18.898437,8.42915 -18.898437,18.89844 v 136.0625 h 34.96289 v -13.22852 h -4.724609 v -11.33984 h 4.724609 V 470.5502 h 13.228516 v 17.00781 h 4.724609 v 11.33984 h -4.724609 v 13.22852 h 27.400391 v 30.23678 h 75.589842 v -30.23678 h 27.4043 v -13.22852 h -4.72461 v -11.33984 h 4.72461 V 470.5502 h 13.22851 v 17.00781 h 4.72461 v 11.33984 h -4.72461 v 13.22852 h 34.95704 v -136.0625 c 0,-10.46929 -8.42719,-18.89844 -18.89649,-18.89844 h -34.96094 v 26.45703 h 4.72461 v 11.33985 h -4.72461 v 17.00781 h -13.22851 v -17.00781 h -4.72461 v -11.33985 h 4.72461 v -26.45703 h -39.68555 v 22.67774 h 4.72461 v 11.33984 h -4.72461 v 7.41602 c 14.86433,3.12735 25.50699,16.23798 25.51172,31.42773 -0.0148,8.08654 -3.0787,15.87005 -8.58008,21.79687 0.0489,0.60686 0.0743,1.2154 0.0762,1.82422 -5.3e-4,13.04534 -10.57574,23.62058 -23.62109,23.6211 -13.04611,5.5e-4 -23.62252,-10.57499 -23.62305,-23.6211 0.007,-0.59922 0.0371,-1.19797 0.0898,-1.79492 -5.513232,-5.93215 -8.582604,-13.72766 -8.593754,-21.82617 0.01765,-15.17949 10.657404,-28.27516 25.511724,-31.40039 v -7.44336 h -4.72461 v -11.33984 h 4.72461 V 357.16543 H 78.423828 v 26.45703 h 4.72461 v 11.33985 h -4.72461 v 17.00781 H 65.195312 v -17.00781 h -4.724609 v -11.33985 h 4.724609 v -26.45703 z m -3.779297,37.79492 h 22.677735 v 41.57422 H 26.457031 Z m 173.857419,0 h 22.67774 v 41.57422 H 200.31445 Z M 37.794922,447.87246 c 3.13155,-3.5e-4 5.670258,2.53838 5.669922,5.66992 3.31e-4,3.13155 -2.538376,5.67029 -5.669922,5.66993 -3.130781,-7.2e-4 -5.6683,-2.53914 -5.667969,-5.66993 -3.36e-4,-3.13077 2.537184,-5.66919 5.667969,-5.66992 z m 173.859378,0.001 c 3.13078,7.3e-4 5.66831,2.53915 5.66797,5.66992 3.3e-4,3.13079 -2.53719,5.6692 -5.66797,5.66992 -3.13154,3.5e-4 -5.67026,-2.53837 -5.66992,-5.66992 -3.5e-4,-3.13153 2.53837,-5.67026 5.66992,-5.66992 z"
     id="rect4707"
     inkscape:connector-curvature="0"
     sodipodi:nodetypes="ssccccccccccccccccccccccccccccccsscccccccccccccccccccccccccccccccccccccccccccscccccccccccccccccccc" />
  <path
     style="opacity:1;fill:#ffff00;fill-opacity:0.27054796;stroke:#ff0000;stroke-width:0.75590551;stroke-linecap:square;stroke-linejoin:miter;stroke-miterlimit:4;stroke-dasharray:none;stroke-opacity:1"
     d="m 288.0087,249.15352 c 6.04097,-0.007 11.62719,-3.21033 14.68554,-8.41992 l 0.38477,-0.71093 29.38281,-61.89645 5.99023,-46.11326 25.9846,-17.37499 h 29.98025 c 1.61926,7.09639 7.92628,12.1331 15.20507,12.14257 7.28098,-0.007 13.59118,-5.04404 15.21093,-12.14257 h 10.36329 l 1.67969,-12.93164 c 0.0253,-0.19466 0.0371,-0.38636 0.0371,-0.57617 -5e-4,-2.847103 -2.76254,-5.09374 -5.70704,-5.09374 h -5.66797 V 14.776677 c 0.0255,-5.2345909 -4.21457,-9.4492209 -9.44921,-9.4492209 h -40.96289 c -5.23464,0 -9.63672,4.21457 -9.63672,9.4492209 V 47.139504 L 341.4555,63.616053 h -10.40579 v -0.002 H 282.52237 V 93.85082 h -11.52148 v 52.07614 h 12.24023 v -3.78125 h 13.22656 v 3.78125 h 16.38672 v 13.60546 h -16.38672 v 3.7793 h -13.22656 v -3.7793 h -12.24023 v 13.68951 h -21.16602 v 36.20116 h 21.16602 v 21.76755 c -0.0231,0.30295 -9.2e-4,0.56932 -0.008,0.87305 5.2e-4,9.41774 7.59787,17.0893 17.01562,17.08983 z m 0.64062,-11.05859 c -3.33951,-2e-4 -6.04667,-2.70735 -6.04687,-6.04686 2e-4,-3.33951 2.70736,-6.04667 6.04687,-6.04687 3.33952,2e-4 6.04668,2.70736 6.04688,6.04687 -2.1e-4,3.33951 -2.70737,6.04666 -6.04688,6.04686 z M 409.62197,117.21219 c -3.33952,-2e-4 -6.04664,-2.70736 -6.04687,-6.04688 -8.7e-4,-3.34027 2.7066,-6.04862 6.04687,-6.04882 3.34104,-8.8e-4 6.0497,2.70778 6.04883,6.04882 -2e-4,3.34028 -2.70855,6.04776 -6.04883,6.04688 z m -120.95702,-0.01 c -3.33952,-2e-4 -6.04668,-2.70735 -6.04688,-6.04687 2.1e-4,-3.33951 2.70736,-6.04668 6.04688,-6.04688 3.33951,2.1e-4 6.04667,2.70737 6.04687,6.04688 -2e-4,3.33951 -2.70736,6.04666 -6.04687,6.04687 z M 401.67276,48.038167 h -9.44728 v -32.12695 h 9.44728 z m -18.8965,0 h -9.44921 v -32.12695 h 9.44921 z"
     id="path4909-7"
     inkscape:connector-curvature="0"
     sodipodi:nodetypes="ccccccccccccsccssscccccccccccccccccccccccccccccccccccccccccccccccccacc" />
  <path
     style="opacity:1;fill:#ffff00;fill-opacity:0.27054796;stroke:#ff0000;stroke-width:0.75590551;stroke-linecap:square;stroke-linejoin:miter;stroke-miterlimit:4;stroke-dasharray:none;stroke-opacity:1"
     d="m 372.47289,136.6954 c -5.23464,0 -6.57877,5.20203 -9.63867,9.44922 v 79.36914 h -15.11719 v 30.23633 h -79.37109 v 21.54492 h 12.24218 v -3.78125 h 13.22657 v 3.78125 h 16.38672 v 13.60547 h -16.38672 v 3.7793 h -13.22657 v -3.7793 h -12.24218 v 13.68945 h -21.16407 v 36.20117 h 21.16407 v 34.09766 l 3.40234,3.69727 h 49.13281 l 4.15821,-3.69727 v -32.125 l 18.89843,-18.89844 89.19532,-0.83789 c 2.76159,0.0313 5.66992,-2.94226 5.66992,-4.83203 v -87.80664 c 0,-2.13585 -3.07847,-4.79102 -5.66992,-4.79102 h -9.82618 l -0.42382,-79.45312 c -0.0279,-5.23457 -4.21457,-9.44922 -9.44922,-9.44922 z m -1.79883,10.58398 h 9.44727 v 32.125 h -9.44727 z m 18.89649,0 h 9.44921 v 32.125 h -9.44921 z m -12.5625,99.10547 h 26.45703 c 3.66426,0 6.61328,2.95099 6.61328,6.61524 0,3.66425 -2.94902,6.61328 -6.61328,6.61328 h -26.45703 c -3.66425,0 -6.61524,-2.94903 -6.61524,-6.61328 0,-3.66425 2.95099,-6.61524 6.61524,-6.61524 z m 0,41.57618 h 26.45703 c 3.66426,0 6.61328,2.94903 6.61328,6.61328 0,3.66425 -2.94902,6.61328 -6.61328,6.61328 h -26.45703 c -3.66425,0 -6.61524,-2.94903 -6.61524,-6.61328 0,-3.66425 2.95099,-6.61328 6.61524,-6.61328 z m -90.9961,69.45898 c 3.34027,2.1e-4 6.04776,2.70856 6.04688,6.04883 -2e-4,3.33951 -2.70737,6.04666 -6.04688,6.04687 -3.33952,-2e-4 -6.04667,-2.70735 -6.04687,-6.04687 -8.8e-4,-3.34028 2.70659,-6.04863 6.04687,-6.04883 z"
     id="rect3902-6"
     inkscape:connector-curvature="0" />
  <text
     xml:space="preserve"
     style="font-style:normal;font-weight:normal;font-size:74.66666412px;line-height:25px;font-family:sans-serif;letter-spacing:0px;word-spacing:0px;fill:#000000;fill-opacity:1;stroke:none;stroke-width:1px;stroke-linecap:butt;stroke-linejoin:miter;stroke-opacity:1"
     x="111.44947"
     y="214.78171"
     id="text4505"><tspan
       sodipodi:role="line"
       id="tspan4503"
       x="111.44947"
       y="246.67754" /></text>
  <text
     xml:space="preserve"
     style="font-style:normal;font-weight:normal;font-size:21.33333397px;line-height:25px;font-family:sans-serif;letter-spacing:0px;word-spacing:0px;fill:#0000ff;fill-opacity:1;stroke:none;stroke-width:1px;stroke-linecap:butt;stroke-linejoin:miter;stroke-opacity:1;"
     x="77.133865"
     y="218.40106"
     id="text5216"><tspan
       sodipodi:role="line"
       id="tspan5214"
       x="77.133865"
       y="218.40106">8mm</tspan></text>
  <text
     xml:space="preserve"
     style="font-style:normal;font-weight:normal;font-size:21.33333397px;line-height:25px;font-family:sans-serif;letter-spacing:0px;word-spacing:0px;fill:#0000ff;fill-opacity:1;stroke:none;stroke-width:1px;stroke-linecap:butt;stroke-linejoin:miter;stroke-opacity:1"
     x="336.44574"
     y="95.088379"
     id="text5220"><tspan
       sodipodi:role="line"
       id="tspan5218"
       x="336.44574"
       y="95.088379">6mm      </tspan></text>
  <flowRoot
     xml:space="preserve"
     id="flowRoot5222"
     style="fill:black;stroke:none;stroke-opacity:1;stroke-width:1px;stroke-linejoin:miter;stroke-linecap:butt;fill-opacity:1;font-family:sans-serif;font-style:normal;font-weight:normal;font-size:21.33333333px;line-height:25px;letter-spacing:0px;word-spacing:0px"><flowRegion
       id="flowRegion5224"><rect
         id="rect5226"
         width="17.09766"
         height="42.708981"
         x="368.69339"
         y="166.93164" /></flowRegion><flowPara
       id="flowPara5228" /></flowRoot>  <text
     xml:space="preserve"
     style="font-style:normal;font-weight:normal;font-size:21.33333397px;line-height:25px;font-family:sans-serif;letter-spacing:0px;word-spacing:0px;fill:#0000ff;fill-opacity:1;stroke:none;stroke-width:1px;stroke-linecap:butt;stroke-linejoin:miter;stroke-opacity:1"
     x="281.64011"
     y="317.61975"
     id="text5232"><tspan
       sodipodi:role="line"
       id="tspan5230"
       x="281.64011"
       y="317.61975">6mm</tspan></text>
  <text
     xml:space="preserve"
     style="font-style:normal;font-weight:normal;font-size:21.33333397px;line-height:25px;font-family:sans-serif;letter-spacing:0px;word-spacing:0px;fill:#0000ff;fill-opacity:1;stroke:none;stroke-width:1px;stroke-linecap:butt;stroke-linejoin:miter;stroke-opacity:1;"
     x="91.850189"
     y="498.51877"
     id="text5236"><tspan
       sodipodi:role="line"
       id="tspan5234"
       x="91.850189"
       y="498.51877">6mm</tspan></text>
  <g
     transform="matrix(3.7795274,0,0,3.7795274,164.67314,-78.48442)"
     id="g5516">
    <g
       transform="matrix(-0.2594952,0,0,0.2594952,100.10402,-133.77799)"
       id="g4815"
       style="stroke-width:1.0196079">
      <rect
         style="opacity:1;fill:#ffff00;fill-opacity:0.53082192;stroke:#ff0000;stroke-width:0.77072716;stroke-linecap:square;stroke-linejoin:miter;stroke-miterlimit:4;stroke-dasharray:none;stroke-opacity:1"
         id="rect4800"
         width="22.677166"
         height="24.566929"
         x="117.16535"
         y="986.75659" />
      <circle
         style="opacity:1;fill:#ffff00;fill-opacity:0.53082192;stroke:#ff0000;stroke-width:0.77072716;stroke-linecap:square;stroke-linejoin:miter;stroke-miterlimit:4;stroke-dasharray:none;stroke-opacity:1"
         id="path4804"
         cx="129.82675"
         cy="953.30786"
         r="6.0472445" />
      <path
         style="opacity:1;fill:#ffff00;fill-opacity:0.53082192;stroke:#ff0000;stroke-width:0.75590551;stroke-linecap:square;stroke-linejoin:miter;stroke-miterlimit:4;stroke-dasharray:none;stroke-opacity:1"
         d="m 276.40625,514.05859 v -33.13086 -7.36328 -58.90039 c 0,-4.07888 -3.32396,-7.36328 -7.45508,-7.36328 h -41.03906 c -4.13113,0 -7.45703,3.2844 -7.45703,7.36328 3.05043,48.71207 -50.17067,69.73909 -98.29102,80.54688 H 91.849609 c -4.131125,0 -7.457031,3.28437 -7.457031,7.36328 v 66.26172 c 0,4.0789 3.325906,7.36328 7.457031,7.36328 h 57.976561 c 14.54325,-15.37259 21.51194,-36.03805 36.50419,-46.70093 14.99225,-10.66288 25.94277,-14.85795 37.88049,-15.41529 z"
         transform="matrix(-1.0196078,0,0,1.0196078,385.76444,515.53166)"
         id="rect4794"
         inkscape:connector-curvature="0"
         sodipodi:nodetypes="cccsssccsssscccc" />
    </g>
    <rect
       transform="scale(-1,1)"
       style="opacity:1;fill:#ffff00;fill-opacity:0.53082192;stroke:#ff0000;stroke-width:0.2;stroke-linecap:square;stroke-linejoin:miter;stroke-miterlimit:4;stroke-dasharray:none;stroke-opacity:1"
       id="rect5439"
       width="2.5499983"
       height="9.8077049"
       x="-38.1194"
       y="136.34494"
       rx="1.4999992"
       ry="1.4999992" />
    <rect
       transform="scale(-1,1)"
       ry="1.4999992"
       rx="1.4999992"
       y="136.34492"
       x="-28.900169"
       height="9.8077049"
       width="2.5499983"
       id="rect5443"
       style="opacity:1;fill:#ffff00;fill-opacity:0.53082192;stroke:#ff0000;stroke-width:0.2;stroke-linecap:square;stroke-linejoin:miter;stroke-miterlimit:4;stroke-dasharray:none;stroke-opacity:1" />
  </g>
  <text
     xml:space="preserve"
     style="font-style:normal;font-weight:normal;font-size:21.33333397px;line-height:25px;font-family:sans-serif;letter-spacing:0px;word-spacing:0px;fill:#0000ff;fill-opacity:1;stroke:none;stroke-width:1px;stroke-linecap:butt;stroke-linejoin:miter;stroke-opacity:1"
     x="334.90948"
     y="427.1207"
     id="text5232-3"><tspan
       sodipodi:role="line"
       id="tspan5230-6"
       x="334.90948"
       y="427.1207">6mm</tspan></text>
</svg>
