<?xml version="1.0" encoding="UTF-8" standalone="no"?>
<!-- Created with Inkscape (http://www.inkscape.org/) -->

<svg
   xmlns:dc="http://purl.org/dc/elements/1.1/"
   xmlns:cc="http://creativecommons.org/ns#"
   xmlns:rdf="http://www.w3.org/1999/02/22-rdf-syntax-ns#"
   xmlns:svg="http://www.w3.org/2000/svg"
   xmlns="http://www.w3.org/2000/svg"
   xmlns:sodipodi="http://sodipodi.sourceforge.net/DTD/sodipodi-0.dtd"
   xmlns:inkscape="http://www.inkscape.org/namespaces/inkscape"
   version="1.1"
   id="svg2"
   width="400mm"
   height="300mm"
   viewBox="0 0 1511.811 1133.8582"
   sodipodi:docname="right.svg"
   inkscape:version="0.92.1 unknown">
  <metadata
     id="metadata8">
    <rdf:RDF>
      <cc:Work
         rdf:about="">
        <dc:format>image/svg+xml</dc:format>
        <dc:type
           rdf:resource="http://purl.org/dc/dcmitype/StillImage" />
        <dc:title />
        <cc:license
           rdf:resource="http://creativecommons.org/licenses/by-nc-sa/4.0/" />
        <dc:creator>
          <cc:Agent>
            <dc:title>Jürgen Weigert &lt;juergen@fabmail.org&gt;</dc:title>
          </cc:Agent>
        </dc:creator>
        <dc:source>own scans and measurements</dc:source>
      </cc:Work>
      <cc:License
         rdf:about="http://creativecommons.org/licenses/by-nc-sa/4.0/">
        <cc:permits
           rdf:resource="http://creativecommons.org/ns#Reproduction" />
        <cc:permits
           rdf:resource="http://creativecommons.org/ns#Distribution" />
        <cc:requires
           rdf:resource="http://creativecommons.org/ns#Notice" />
        <cc:requires
           rdf:resource="http://creativecommons.org/ns#Attribution" />
        <cc:prohibits
           rdf:resource="http://creativecommons.org/ns#CommercialUse" />
        <cc:permits
           rdf:resource="http://creativecommons.org/ns#DerivativeWorks" />
        <cc:requires
           rdf:resource="http://creativecommons.org/ns#ShareAlike" />
      </cc:License>
    </rdf:RDF>
  </metadata>
  <defs
     id="defs6">
    <clipPath
       id="clipPath29"
       clipPathUnits="userSpaceOnUse">
      <rect
         y="21.337626"
         x="8.297966"
         height="387.63358"
         width="482.46753"
         id="rect31"
         style="opacity:1;fill:#ffff00;fill-opacity:0.53082192;stroke:#0000ff;stroke-width:0.75590551;stroke-linecap:square;stroke-linejoin:miter;stroke-miterlimit:4;stroke-dasharray:none;stroke-opacity:1" />
    </clipPath>
    <clipPath
       id="clipPath29-1"
       clipPathUnits="userSpaceOnUse">
      <rect
         y="21.337626"
         x="8.297966"
         height="387.63358"
         width="482.46753"
         id="rect31-2"
         style="opacity:1;fill:#ffff00;fill-opacity:0.53082192;stroke:#0000ff;stroke-width:0.75590551;stroke-linecap:square;stroke-linejoin:miter;stroke-miterlimit:4;stroke-dasharray:none;stroke-opacity:1" />
    </clipPath>
    <clipPath
       clipPathUnits="userSpaceOnUse"
       id="clipPath29-5">
      <rect
         style="opacity:1;fill:#ffff00;fill-opacity:0.53082192;stroke:#0000ff;stroke-width:0.75590551;stroke-linecap:square;stroke-linejoin:miter;stroke-miterlimit:4;stroke-dasharray:none;stroke-opacity:1"
         id="rect31-3"
         width="482.46753"
         height="387.63358"
         x="8.297966"
         y="21.337626" />
    </clipPath>
    <clipPath
       id="clipPath29-6"
       clipPathUnits="userSpaceOnUse">
      <rect
         y="21.337626"
         x="8.297966"
         height="387.63358"
         width="482.46753"
         id="rect31-26"
         style="opacity:1;fill:#ffff00;fill-opacity:0.53082192;stroke:#0000ff;stroke-width:0.75590551;stroke-linecap:square;stroke-linejoin:miter;stroke-miterlimit:4;stroke-dasharray:none;stroke-opacity:1" />
    </clipPath>
    <clipPath
       clipPathUnits="userSpaceOnUse"
       id="clipPath29-5-1">
      <rect
         style="opacity:1;fill:#ffff00;fill-opacity:0.53082192;stroke:#0000ff;stroke-width:0.75590551;stroke-linecap:square;stroke-linejoin:miter;stroke-miterlimit:4;stroke-dasharray:none;stroke-opacity:1"
         id="rect31-3-8"
         width="482.46753"
         height="387.63358"
         x="8.297966"
         y="21.337626" />
    </clipPath>
    <clipPath
       id="clipPath29-7"
       clipPathUnits="userSpaceOnUse">
      <rect
         y="21.337626"
         x="8.297966"
         height="387.63358"
         width="482.46753"
         id="rect31-5"
         style="opacity:1;fill:#ffff00;fill-opacity:0.53082192;stroke:#0000ff;stroke-width:0.75590551;stroke-linecap:square;stroke-linejoin:miter;stroke-miterlimit:4;stroke-dasharray:none;stroke-opacity:1" />
    </clipPath>
    <clipPath
       id="clipPath29-4"
       clipPathUnits="userSpaceOnUse">
      <rect
         y="21.337626"
         x="8.297966"
         height="387.63358"
         width="482.46753"
         id="rect31-7"
         style="opacity:1;fill:#ffff00;fill-opacity:0.53082192;stroke:#0000ff;stroke-width:0.75590551;stroke-linecap:square;stroke-linejoin:miter;stroke-miterlimit:4;stroke-dasharray:none;stroke-opacity:1" />
    </clipPath>
    <clipPath
       clipPathUnits="userSpaceOnUse"
       id="clipPath29-5-8">
      <rect
         style="opacity:1;fill:#ffff00;fill-opacity:0.53082192;stroke:#0000ff;stroke-width:0.75590551;stroke-linecap:square;stroke-linejoin:miter;stroke-miterlimit:4;stroke-dasharray:none;stroke-opacity:1"
         id="rect31-3-4"
         width="482.46753"
         height="387.63358"
         x="8.297966"
         y="21.337626" />
    </clipPath>
  </defs>
  <sodipodi:namedview
     pagecolor="#ffffff"
     bordercolor="#666666"
     borderopacity="1"
     objecttolerance="10"
     gridtolerance="10"
     guidetolerance="10"
     inkscape:pageopacity="0"
     inkscape:pageshadow="2"
     inkscape:window-width="1600"
     inkscape:window-height="843"
     id="namedview4"
     showgrid="true"
     units="mm"
     inkscape:document-units="mm"
     inkscape:snap-global="true"
     inkscape:zoom="0.58296528"
     inkscape:cx="755.90551"
     inkscape:cy="566.92913"
     inkscape:window-x="320"
     inkscape:window-y="1080"
     inkscape:window-maximized="1"
     inkscape:current-layer="svg2"
     inkscape:snap-object-midpoints="true">
    <inkscape:grid
       type="xygrid"
       id="grid12"
       spacingx="3.7795275"
       spacingy="3.7795275"
       enabled="true"
       visible="true"
       snapvisiblegridlinesonly="false" />
    <inkscape:grid
       type="xygrid"
       id="grid838"
       visible="false"
       snapvisiblegridlinesonly="false" />
  </sodipodi:namedview>
  <path
     style="opacity:1;fill:#ffff00;fill-opacity:0.27054796;stroke:#ff0000;stroke-width:0.75590551;stroke-linecap:square;stroke-linejoin:miter;stroke-miterlimit:4;stroke-dasharray:none;stroke-opacity:1"
     d="M 45.353945,7.5599126 V 28.723973 H 11.256298 l -3.6972704,3.40235 v 49.132812 l 3.6972704,4.158197 h 32.124997 l 18.898425,18.898428 0.83789,89.19531 c -0.0313,2.7616 2.942257,5.66992 4.832027,5.66992 h 87.806613 c 2.13585,0 4.79101,-3.07846 4.79101,-5.66992 V 89.196629 l 79.45313,-0.42383 c 5.23457,-0.0279 9.44922,-4.214564 9.44922,-9.449211 V 38.362647 c 0,-5.234644 -4.21457,-9.638674 -9.44922,-9.638674 h -119.8125 v 12.242194 h 3.78125 v 13.22656 h -3.78125 v 16.38672 h -13.60547 v -16.38672 h -3.7793 v -13.22656 h 3.7793 V 28.723973 H 81.555095 V 7.5599126 Z M 206.74062,36.563827 h 32.125 v 9.44726 h -32.125 z m -184.064402,3.77929 a 6.0472443,6.0472443 0 0 1 6.04883,6.04688 6.0472443,6.0472443 0 0 1 -6.04883,6.04687 6.0472443,6.0472443 0 0 1 -6.04688,-6.04687 6.0472443,6.0472443 0 0 1 6.04688,-6.04688 z m 120.945262,0 a 6.0472443,6.0472443 0 0 1 6.04688,6.04688 6.0472443,6.0472443 0 0 1 -6.04688,6.04687 6.0472443,6.0472443 0 0 1 -6.04687,-6.04687 6.0472443,6.0472443 0 0 1 6.04687,-6.04688 z m 63.11914,15.11719 h 32.125 v 9.44922 h -32.125 z M 91.570709,130.77084 c 3.664247,0 6.613274,2.95098 6.613274,6.61523 v 26.45703 c 0,3.66426 -2.949027,6.61329 -6.613274,6.61329 -3.664247,0 -6.613277,-2.94903 -6.613277,-6.61329 v -26.45703 c 0,-3.66425 2.94903,-6.61523 6.613277,-6.61523 z m 41.574211,0 c 3.66425,0 6.61523,2.95098 6.61523,6.61523 v 26.45703 c 0,3.66426 -2.95098,6.61329 -6.61523,6.61329 -3.66425,0 -6.61328,-2.94903 -6.61328,-6.61329 v -26.45703 c 0,-3.66425 2.94903,-6.61523 6.61328,-6.61523 z"
     id="rect3902-6"
     inkscape:connector-curvature="0" />
</svg>
